# Blender v2.78 (sub 0) OBJ File: 'glasslåda.blend'
# www.blender.org
mtllib glassbox.mtl
o lock.001_Cube.003
v 3.904040 2.139933 -1.638327
v 3.904042 1.734154 1.639245
v 0.008840 2.139933 -1.638325
v 0.008842 1.734154 1.639247
v 3.811233 2.154452 -1.556546
v 3.811234 1.768179 1.563474
v 0.101648 2.154452 -1.556544
v 0.101650 1.768178 1.563476
v 3.904042 1.765690 1.384523
v 3.904040 2.108397 -1.383605
v 0.008840 2.108397 -1.383603
v 0.008842 1.765690 1.384526
v 3.811233 2.132669 -1.380600
v 3.811234 1.789962 1.387528
v 0.101650 1.789961 1.387530
v 0.101648 2.132669 -1.380598
v 3.904041 1.843374 0.757054
v 3.904041 2.030714 -0.756136
v 3.904041 2.074327 -0.750736
v 3.904041 1.886986 0.762454
v 0.008841 2.030714 -0.756134
v 0.008842 1.843373 0.757057
v 3.811233 2.054985 -0.753131
v 3.811234 1.867645 0.760060
v 0.101649 1.867645 0.760061
v 0.101648 2.054985 -0.753129
v 3.902422 2.086215 -0.722477
v 3.902423 1.905407 0.737947
v 3.867666 2.086215 -0.722477
v 3.867666 1.905407 0.737947
v 3.878667 2.196034 -1.609515
v 3.904040 2.182909 -1.633006
v 3.878670 1.795588 1.624985
v 3.904042 1.777130 1.644566
v 0.034213 2.196034 -1.609512
v 0.008840 2.182909 -1.633004
v 0.034214 1.795588 1.624987
v 0.008842 1.777130 1.644568
v 3.904040 2.151373 -1.378284
v 3.878667 2.167165 -1.376329
v 3.902852 2.162775 -1.340872
v 3.904040 2.147613 -1.342692
v 3.878669 1.824458 1.391799
v 3.904042 1.808666 1.389844
v 3.904042 1.813699 1.354409
v 3.902853 1.828847 1.356341
v 0.034214 1.824457 1.391801
v 0.008842 1.808666 1.389846
v 0.008840 2.151373 -1.378282
v 0.034213 2.167165 -1.376327
v 0.034214 1.902141 0.764332
v 0.008842 1.886349 0.762377
v 0.008841 2.073689 -0.750813
v 0.034213 2.089481 -0.748858
v 3.893957 2.161424 -1.327869
v 3.902422 2.161190 -1.328067
v 3.902424 1.830433 1.343537
v 3.893958 1.830708 1.343402
v 3.876131 2.161424 -1.327869
v 3.867665 2.160310 -1.320963
v 3.876132 1.830708 1.343402
v 3.867667 1.831311 1.336433
v 3.893957 2.220116 -1.275086
v 3.902422 2.211243 -1.280314
v 3.893957 2.220046 -1.278641
v 3.902424 1.890620 1.309432
v 3.893958 1.900500 1.306525
v 3.893958 1.899565 1.309956
v 3.876131 2.220116 -1.275086
v 3.876131 2.220046 -1.278641
v 3.867665 2.210874 -1.272784
v 3.867667 1.892099 1.302039
v 3.876132 1.899565 1.309957
v 3.876132 1.900500 1.306525
v 3.893957 2.192593 -0.712686
v 3.893957 2.190670 -0.695120
v 3.902422 2.182802 -0.699157
v 3.893958 2.010962 0.754394
v 3.902423 2.004766 0.738885
v 3.893958 2.013381 0.736889
v 3.876131 2.192593 -0.712686
v 3.867666 2.182802 -0.699157
v 3.876131 2.190670 -0.695120
v 3.876132 2.010962 0.754394
v 3.876132 2.013381 0.736889
v 3.867666 2.004766 0.738885
v 3.811233 2.173224 -1.554222
v 3.833912 2.191331 -1.571526
v 3.811234 1.786951 1.565798
v 3.833914 1.800291 1.586996
v 0.101648 2.173224 -1.554220
v 0.078968 2.191331 -1.571524
v 0.101650 1.786950 1.565800
v 0.078970 1.800291 1.586998
v 3.811233 2.151441 -1.378276
v 3.833912 2.167165 -1.376329
v 3.833914 1.824457 1.391799
v 3.811234 1.808733 1.389852
v 0.101650 1.808733 1.389854
v 0.078970 1.824457 1.391801
v 0.078968 2.167165 -1.376327
v 0.101648 2.151441 -1.378274
v 3.811233 2.073757 -0.750807
v 3.833913 2.088168 -0.738257
v 3.833914 1.903454 0.753727
v 3.811234 1.886417 0.762384
v 0.101649 1.886417 0.762385
v 0.078969 1.902141 0.764332
v 0.078969 2.089481 -0.748858
v 0.101648 2.073757 -0.750805
vn 0.0000 -0.1229 0.9924
vn -0.0000 0.1229 -0.9924
vn -1.0000 0.0000 0.0000
vn -0.0000 -0.9924 -0.1229
vn 1.0000 0.0000 -0.0000
vn -0.0000 0.9924 0.1229
vn 0.0000 0.4369 0.8995
vn 0.9945 0.1043 0.0126
vn 0.0000 0.9806 0.1962
vn 0.9945 0.1042 0.0133
vn -0.0000 0.9988 0.0489
vn 0.9944 0.1045 0.0129
vn -0.0000 0.9924 0.1228
vn 0.7364 0.6533 -0.1757
vn 0.7364 0.5908 0.3297
vn 0.5313 0.8408 0.1041
vn 0.0000 0.7277 0.6859
vn -0.5313 0.8408 0.1041
vn -0.0000 0.8730 -0.4878
vn 0.7194 0.6944 -0.0137
vn 0.7194 0.6701 0.1826
vn -0.7390 0.6736 -0.0133
vn -0.7390 0.6501 0.1771
vn 0.6984 0.7115 0.0779
vn 0.6984 0.7090 0.0980
vn -0.6984 0.7115 0.0779
vn -0.6984 0.7090 0.0980
vn -0.0102 -0.9988 -0.0479
vn -0.0102 -0.9803 -0.1971
vn 0.7328 0.6672 0.1335
vn -0.7328 0.6672 0.1335
vn 0.0000 0.9648 0.2629
vn -0.0000 0.9998 -0.0197
vn 0.2633 0.4474 0.8547
vn -0.6951 0.3333 0.6369
vn 0.2633 0.6423 -0.7198
vn -0.6951 0.4786 -0.5364
vn 0.7328 0.6796 0.0333
vn 0.7002 0.7085 0.0877
vn -0.7328 0.6796 0.0333
vn -0.7003 0.7085 0.0877
vn 0.0000 0.9906 0.1369
vn -0.0000 0.9941 0.1088
vn -0.0000 0.6431 -0.7658
vn -0.5727 0.8136 0.1007
vn -0.0000 0.8463 -0.5326
vn 0.5727 0.8136 0.1007
vn 0.0000 0.6909 0.7230
usemtl lock
s off
f 2//1 34//1 38//1 4//1
f 93//2 89//2 6//2 8//2
f 103//3 95//3 13//3 23//3
f 89//3 98//3 14//3 6//3
f 10//4 11//4 3//4 1//4
f 1//5 32//5 39//5 10//5
f 33//6 43//6 97//6 90//6
f 31//6 35//6 92//6 88//6
f 99//5 93//5 8//5 15//5
f 4//3 38//3 48//3 12//3
f 47//6 37//6 94//6 100//6
f 40//6 31//6 88//6 96//6
f 95//3 87//3 5//3 13//3
f 37//6 33//6 90//6 94//6
f 96//6 104//6 29//6 60//6
f 35//6 50//6 101//6 92//6
f 51//6 47//6 100//6 108//6
f 11//3 49//3 36//3 3//3
f 12//3 48//3 52//3 22//3
f 9//5 44//5 34//5 2//5
f 30//3 62//3 72//3 86//3
f 2//4 4//4 12//4 9//4
f 18//4 21//4 11//4 10//4
f 57//5 28//5 79//5 66//5
f 22//3 52//3 53//3 21//3
f 91//5 102//5 16//5 7//5
f 61//7 58//7 68//7 73//7
f 46//8 45//8 20//8 28//8 57//8
f 10//5 39//5 42//5 19//5 18//5
f 98//3 106//3 24//3 14//3
f 102//5 110//5 26//5 16//5
f 67//9 78//9 84//9 74//9
f 19//10 42//10 41//10 56//10 27//10
f 27//5 56//5 64//5 77//5
f 75//11 63//11 69//11 81//11
f 107//5 99//5 15//5 25//5
f 105//6 97//6 62//6 30//6
f 80//6 76//6 83//6 85//6
f 28//5 27//5 77//5 79//5
f 29//3 30//3 86//3 82//3
f 17//5 20//5 45//5 44//5 9//5
f 20//12 19//12 27//12 28//12
f 41//6 40//6 96//6 60//6 56//6
f 18//5 19//5 20//5 17//5
f 104//6 105//6 30//6 29//6
f 110//5 107//5 25//5 26//5
f 9//4 12//4 22//4 17//4
f 17//4 22//4 21//4 18//4
f 60//3 29//3 82//3 71//3
f 106//3 103//3 23//3 24//3
f 21//3 53//3 49//3 11//3
f 50//6 54//6 109//6 101//6
f 97//13 43//13 46//13 57//13 62//13
f 54//6 51//6 108//6 109//6
f 39//14 40//14 41//14 42//14
f 43//15 44//15 45//15 46//15
f 43//16 33//16 34//16 44//16
f 33//17 37//17 38//17 34//17
f 50//18 35//18 36//18 49//18
f 35//19 31//19 32//19 36//19
f 31//16 40//16 39//16 32//16
f 37//18 47//18 48//18 38//18
f 54//18 50//18 49//18 53//18
f 47//18 51//18 52//18 48//18
f 51//18 54//18 53//18 52//18
f 3//2 36//2 32//2 1//2
f 63//20 64//20 65//20
f 66//21 67//21 68//21
f 69//22 70//22 71//22
f 72//23 73//23 74//23
f 75//24 76//24 77//24
f 78//25 79//25 80//25
f 81//26 82//26 83//26
f 84//27 85//27 86//27
f 58//28 61//28 62//28 57//28
f 56//29 60//29 59//29 55//29
f 78//30 67//30 66//30 79//30
f 86//31 72//31 74//31 84//31
f 67//32 74//32 73//32 68//32
f 65//33 70//33 69//33 63//33
f 57//34 66//34 68//34 58//34
f 72//35 62//35 61//35 73//35
f 55//36 65//36 64//36 56//36
f 60//37 71//37 70//37 59//37
f 63//38 75//38 77//38 64//38
f 76//39 80//39 79//39 77//39
f 71//40 82//40 81//40 69//40
f 82//41 86//41 85//41 83//41
f 80//42 85//42 84//42 78//42
f 75//43 81//43 83//43 76//43
f 55//44 59//44 70//44 65//44
f 98//45 89//45 90//45 97//45
f 89//46 93//46 94//46 90//46
f 102//47 91//47 92//47 101//47
f 91//48 87//48 88//48 92//48
f 87//45 95//45 96//45 88//45
f 106//45 98//45 97//45 105//45
f 93//47 99//47 100//47 94//47
f 110//47 102//47 101//47 109//47
f 95//45 103//45 104//45 96//45
f 103//45 106//45 105//45 104//45
f 99//47 107//47 108//47 100//47
f 107//47 110//47 109//47 108//47
f 87//1 91//1 7//1 5//1
usemtl glas
f 16//6 13//6 5//6 7//6
f 8//6 6//6 14//6 15//6
f 26//6 23//6 13//6 16//6
f 15//6 14//6 24//6 25//6
f 25//6 24//6 23//6 26//6
o lock_Cube.002
v -3.908318 1.667960 1.631051
v -3.908318 2.073739 -1.646522
v -0.007793 1.667960 1.631051
v -0.007793 2.073739 -1.646522
v -3.815511 1.701985 1.555279
v -3.815511 2.088258 -1.564740
v -0.100601 1.701985 1.555279
v -0.100601 2.088258 -1.564740
v -3.908318 2.042203 -1.391800
v -3.908318 1.699496 1.376329
v -0.007793 1.699496 1.376329
v -0.007793 2.042203 -1.391800
v -3.815511 1.723768 1.379334
v -3.815511 2.066475 -1.388795
v -0.100601 2.066475 -1.388795
v -0.100601 1.723768 1.379334
v -3.908318 1.964520 -0.764331
v -3.908318 1.777179 0.748860
v -3.908318 1.820792 0.754259
v -3.908318 2.008132 -0.758931
v -0.007793 1.777179 0.748860
v -0.007793 1.964520 -0.764331
v -3.815511 1.801451 0.751865
v -3.815511 1.988791 -0.761326
v -0.100601 1.988791 -0.761326
v -0.100601 1.801451 0.751865
v -3.906700 1.839213 0.729752
v -3.906700 2.020021 -0.730672
v -3.871943 1.839213 0.729752
v -3.871943 2.020021 -0.730672
v -3.882946 1.729394 1.616790
v -3.908318 1.710936 1.636371
v -3.882946 2.129840 -1.617709
v -3.908318 2.116715 -1.641201
v -0.033166 1.729394 1.616790
v -0.007793 1.710936 1.636371
v -0.033166 2.129840 -1.617709
v -0.007793 2.116715 -1.641201
v -3.908318 1.742472 1.381649
v -3.882946 1.758263 1.383605
v -3.907130 1.762653 1.348147
v -3.908318 1.747505 1.346215
v -3.882946 2.100971 -1.384524
v -3.908318 2.085179 -1.386479
v -3.908318 2.081419 -1.350886
v -3.907130 2.096581 -1.349066
v -0.033166 2.100971 -1.384524
v -0.007793 2.085179 -1.386479
v -0.007793 1.742472 1.381649
v -0.033166 1.758263 1.383605
v -0.033166 2.023287 -0.757055
v -0.007793 2.007496 -0.759010
v -0.007793 1.820156 0.754180
v -0.033166 1.835947 0.756136
v -3.898235 1.764514 1.335207
v -3.906700 1.764238 1.335343
v -3.906700 2.094996 -1.336262
v -3.898235 2.095230 -1.336064
v -3.880409 1.764514 1.335207
v -3.871943 1.765118 1.328238
v -3.880409 2.095230 -1.336064
v -3.871943 2.094115 -1.329158
v -3.898235 1.834306 1.298331
v -3.906700 1.824426 1.301237
v -3.898235 1.833371 1.301762
v -3.906700 2.145048 -1.288509
v -3.898235 2.153922 -1.283280
v -3.898235 2.153852 -1.286836
v -3.880409 1.834306 1.298331
v -3.880409 1.833371 1.301762
v -3.871943 1.825905 1.293845
v -3.871943 2.144680 -1.280978
v -3.880409 2.153852 -1.286836
v -3.880409 2.153922 -1.283280
v -3.898235 1.944768 0.746200
v -3.898235 1.947186 0.728694
v -3.906700 1.938572 0.730691
v -3.898235 2.126399 -0.720881
v -3.906700 2.116608 -0.707351
v -3.898235 2.124476 -0.703314
v -3.880409 1.944768 0.746199
v -3.871943 1.938572 0.730691
v -3.880409 1.947186 0.728694
v -3.880409 2.126399 -0.720881
v -3.880409 2.124476 -0.703314
v -3.871943 2.116608 -0.707351
v -3.815511 1.720757 1.557603
v -3.838190 1.734097 1.578801
v -3.815511 2.107030 -1.562416
v -3.838190 2.125137 -1.579720
v -0.100601 1.720757 1.557603
v -0.077921 1.734097 1.578801
v -0.100601 2.107030 -1.562416
v -0.077921 2.125137 -1.579720
v -3.815511 1.742539 1.381658
v -3.838190 1.758263 1.383605
v -3.838190 2.100971 -1.384524
v -3.815511 2.085247 -1.386471
v -0.100601 2.085247 -1.386471
v -0.077921 2.100971 -1.384524
v -0.077921 1.758263 1.383605
v -0.100601 1.742539 1.381658
v -3.815511 1.820223 0.754189
v -3.838190 1.837260 0.745532
v -3.838190 2.021974 -0.746452
v -3.815511 2.007563 -0.759002
v -0.100601 2.007563 -0.759001
v -0.077921 2.023287 -0.757055
v -0.077921 1.835947 0.756136
v -0.100601 1.820223 0.754189
vn 0.0000 0.1229 -0.9924
vn 0.0000 -0.1229 0.9924
vn 1.0000 0.0000 0.0000
vn 0.0000 -0.9924 -0.1229
vn -1.0000 0.0000 0.0000
vn 0.0000 0.9924 0.1229
vn 0.0000 0.6431 -0.7658
vn -0.9945 0.1042 0.0133
vn 0.0000 0.9988 0.0489
vn -0.9945 0.1043 0.0126
vn 0.0000 0.9806 0.1962
vn -0.9944 0.1046 0.0129
vn -0.7364 0.5908 0.3297
vn -0.7364 0.6533 -0.1757
vn -0.5313 0.8408 0.1041
vn 0.0000 0.8730 -0.4878
vn 0.5313 0.8408 0.1041
vn 0.0000 0.7277 0.6859
vn -0.7194 0.6702 0.1826
vn -0.7194 0.6944 -0.0138
vn 0.7390 0.6500 0.1772
vn 0.7390 0.6736 -0.0133
vn -0.6984 0.7090 0.0980
vn -0.6984 0.7115 0.0779
vn 0.6984 0.7090 0.0980
vn 0.6984 0.7115 0.0779
vn 0.0102 -0.9803 -0.1971
vn 0.0102 -0.9988 -0.0481
vn -0.7328 0.6796 0.0333
vn 0.7329 0.6796 0.0333
vn 0.0000 0.9998 -0.0197
vn -0.0000 0.9648 0.2629
vn -0.2633 0.6423 -0.7198
vn 0.6952 0.4786 -0.5364
vn -0.2633 0.4474 0.8547
vn 0.6951 0.3333 0.6370
vn -0.7328 0.6672 0.1335
vn -0.7003 0.7085 0.0877
vn 0.7328 0.6672 0.1335
vn 0.7002 0.7085 0.0877
vn 0.0000 0.9941 0.1088
vn 0.0000 0.9906 0.1369
vn 0.0000 0.4369 0.8995
vn 0.5727 0.8136 0.1007
vn -0.0000 0.6909 0.7230
vn -0.5727 0.8136 0.1007
vn 0.0000 0.8463 -0.5326
usemtl lock.001
s off
f 112//49 144//49 148//49 114//49
f 203//50 199//50 116//50 118//50
f 213//51 205//51 123//51 133//51
f 199//51 208//51 124//51 116//51
f 120//52 121//52 113//52 111//52
f 111//53 142//53 149//53 120//53
f 143//54 153//54 207//54 200//54
f 141//54 145//54 202//54 198//54
f 209//53 203//53 118//53 125//53
f 114//51 148//51 158//51 122//51
f 157//54 147//54 204//54 210//54
f 150//54 141//54 198//54 206//54
f 205//51 197//51 115//51 123//51
f 147//54 143//54 200//54 204//54
f 206//54 214//54 139//54 170//54
f 145//54 160//54 211//54 202//54
f 161//54 157//54 210//54 218//54
f 121//51 159//51 146//51 113//51
f 122//51 158//51 162//51 132//51
f 119//53 154//53 144//53 112//53
f 140//51 172//51 182//51 196//51
f 112//52 114//52 122//52 119//52
f 128//52 131//52 121//52 120//52
f 167//53 138//53 189//53 176//53
f 132//51 162//51 163//51 131//51
f 201//53 212//53 126//53 117//53
f 171//55 168//55 178//55 183//55
f 156//56 155//56 130//56 138//56 167//56
f 120//53 149//53 152//53 129//53 128//53
f 208//51 216//51 134//51 124//51
f 212//53 220//53 136//53 126//53
f 177//57 188//57 194//57 184//57
f 129//58 152//58 151//58 166//58 137//58
f 137//53 166//53 174//53 187//53
f 185//59 173//59 179//59 191//59
f 217//53 209//53 125//53 135//53
f 215//54 207//54 172//54 140//54
f 190//54 186//54 193//54 195//54
f 138//53 137//53 187//53 189//53
f 139//51 140//51 196//51 192//51
f 127//53 130//53 155//53 154//53 119//53
f 130//60 129//60 137//60 138//60
f 151//54 150//54 206//54 170//54 166//54
f 128//53 129//53 130//53 127//53
f 214//54 215//54 140//54 139//54
f 220//53 217//53 135//53 136//53
f 119//52 122//52 132//52 127//52
f 127//52 132//52 131//52 128//52
f 170//51 139//51 192//51 181//51
f 216//51 213//51 133//51 134//51
f 131//51 163//51 159//51 121//51
f 160//54 164//54 219//54 211//54
f 207//54 153//54 156//54 167//54 172//54
f 164//54 161//54 218//54 219//54
f 149//61 150//61 151//61 152//61
f 153//62 154//62 155//62 156//62
f 153//63 143//63 144//63 154//63
f 143//64 147//64 148//64 144//64
f 160//65 145//65 146//65 159//65
f 145//66 141//66 142//66 146//66
f 141//63 150//63 149//63 142//63
f 147//65 157//65 158//65 148//65
f 164//65 160//65 159//65 163//65
f 157//65 161//65 162//65 158//65
f 161//65 164//65 163//65 162//65
f 113//50 146//50 142//50 111//50
f 173//67 174//67 175//67
f 176//68 177//68 178//68
f 179//69 180//69 181//69
f 182//70 183//70 184//70
f 185//71 186//71 187//71
f 188//72 189//72 190//72
f 191//73 192//73 193//73
f 194//74 195//74 196//74
f 168//75 171//75 172//75 167//75
f 166//76 170//76 169//76 165//76
f 188//77 177//77 176//77 189//77
f 196//78 182//78 184//78 194//78
f 177//79 184//79 183//79 178//79
f 175//80 180//80 179//80 173//80
f 167//81 176//81 178//81 168//81
f 182//82 172//82 171//82 183//82
f 165//83 175//83 174//83 166//83
f 170//84 181//84 180//84 169//84
f 173//85 185//85 187//85 174//85
f 186//86 190//86 189//86 187//86
f 181//87 192//87 191//87 179//87
f 192//88 196//88 195//88 193//88
f 190//89 195//89 194//89 188//89
f 185//90 191//90 193//90 186//90
f 165//91 169//91 180//91 175//91
f 208//92 199//92 200//92 207//92
f 199//93 203//93 204//93 200//93
f 212//94 201//94 202//94 211//94
f 201//95 197//95 198//95 202//95
f 197//92 205//92 206//92 198//92
f 216//92 208//92 207//92 215//92
f 203//94 209//94 210//94 204//94
f 220//94 212//94 211//94 219//94
f 205//92 213//92 214//92 206//92
f 213//92 216//92 215//92 214//92
f 209//94 217//94 218//94 210//94
f 217//94 220//94 219//94 218//94
f 197//49 201//49 117//49 115//49
usemtl glas.001
f 126//54 123//54 115//54 117//54
f 118//54 116//54 124//54 125//54
f 136//54 133//54 123//54 126//54
f 125//54 124//54 134//54 135//54
f 135//54 134//54 133//54 136//54
o box_Cube.001
v 3.921323 1.765007 1.660671
v 3.921323 2.164743 -1.660671
v -3.921323 1.765007 1.660671
v -3.921323 2.164743 -1.660671
v 3.921323 -0.742596 1.660671
v 3.921323 -0.742596 -1.660671
v -3.921323 -0.742596 1.660671
v -3.921323 -0.742596 -1.660671
v 4.018631 -2.171228 1.811356
v 4.073094 -2.171228 1.784191
v 4.073094 -2.171228 -1.785369
v 4.018631 -2.171228 -1.811356
v -4.073094 -2.171228 1.784191
v -4.018631 -2.171228 1.811356
v -4.018631 -2.171228 -1.811356
v -4.073094 -2.171228 -1.785369
v 3.974495 1.761807 1.686937
v 3.920031 1.758522 1.714229
v 3.953097 1.761132 1.692675
v 4.073094 1.645193 1.784191
v 4.018631 1.642098 1.811356
v 3.920031 2.171228 -1.714229
v 3.974495 2.168113 -1.688352
v 3.953097 2.168619 -1.692675
v 4.018631 2.054804 -1.811356
v 4.073094 2.051844 -1.785369
v -3.920031 1.758522 1.714229
v -3.974495 1.761807 1.686937
v -3.953097 1.761132 1.692675
v -4.018631 1.642098 1.811356
v -4.073094 1.645192 1.784191
v -3.974495 2.168113 -1.688352
v -3.920031 2.171228 -1.714229
v -3.953097 2.168619 -1.692675
v -4.073094 2.051844 -1.785369
v -4.018631 2.054804 -1.811356
v -0.008292 1.642098 1.811356
v 0.601107 1.115835 1.811356
v -0.904283 0.265618 1.811356
v -1.047905 -0.123835 1.811356
v -0.858766 -0.418553 1.811356
v -1.737928 -0.942205 1.811356
v -1.772115 -1.071314 1.811356
v -1.692276 -1.179509 1.811356
v -1.548085 -1.179509 1.811356
v -0.682638 -0.660729 1.811356
v -0.496991 -0.929239 1.811356
v -0.055789 -0.966399 1.811356
v 1.332138 0.081057 1.811356
v 1.440620 0.459445 1.811356
v 1.049153 1.067873 1.811356
vn 0.7609 -0.6444 -0.0754
vn 0.0000 -0.6406 -0.7679
vn 0.0000 0.0000 1.0000
vn -0.0000 -0.0000 -1.0000
vn 1.0000 0.0000 0.0000
vn 0.0000 -0.9927 -0.1202
vn -0.7609 -0.6444 -0.0754
vn -1.0000 0.0000 0.0000
vn 0.0000 -0.6406 0.7679
vn 0.0000 -0.9928 -0.1195
vn 0.0000 -1.0000 0.0000
vn -0.0015 -0.9925 -0.1225
vn 0.0012 -0.9925 -0.1221
vn 0.0015 -0.9925 -0.1226
vn -0.0012 -0.9925 -0.1222
vn -0.2655 -0.7401 -0.6179
vn -0.3173 -0.7515 0.5784
vn 0.3173 -0.7515 0.5784
vn 0.2655 -0.7401 -0.6179
vn 0.4463 0.0000 -0.8949
vn -0.4463 0.0000 -0.8949
vn -0.4306 0.0000 0.9025
vn 0.4306 0.0000 0.9025
vn 0.0000 1.0000 -0.0000
usemtl box
s off
f 252//96 248//96 251//96 255//96
f 247//97 238//97 241//97 257//97 250//97
f 232//98 245//98 256//98 235//98
f 234//99 263//99 264//99 265//99 266//99 267//99 268//99 269//99 270//99 241//99 229//99
f 236//100 255//100 251//100 233//100
f 239//101 238//101 247//101 249//101 223//101 221//101
f 254//101 253//101 242//101 244//101 222//101 224//101
f 237//102 243//102 246//102 240//102
f 230//103 240//103 246//103 231//103
f 223//103 224//103 228//103 227//103
f 242//104 253//104 256//104 245//104
f 244//105 243//105 237//105 239//105 221//105 222//105
f 249//105 248//105 252//105 254//105 224//105 223//105
f 228//106 226//106 225//106 227//106
f 222//100 221//100 225//100 226//100
f 221//98 223//98 227//98 225//98
f 224//99 222//99 226//99 228//99
f 237//107 238//107 239//107
f 242//108 243//108 244//108
f 247//109 248//109 249//109
f 252//110 253//110 254//110
f 241//111 238//111 237//111 240//111
f 242//112 245//112 246//112 243//112
f 252//113 255//113 256//113 253//113
f 247//114 250//114 251//114 248//114
f 233//115 251//115 250//115 234//115
f 240//116 230//116 229//116 241//116
f 245//117 232//117 231//117 246//117
f 255//118 236//118 235//118 256//118
f 231//119 232//119 235//119 236//119 233//119 234//119 229//119 230//119
f 241//99 270//99 271//99 258//99 257//99
f 257//99 258//99 259//99 260//99 261//99 262//99 263//99 234//99 250//99
usemtl pinne
f 263//99 262//99 261//99 266//99 265//99 264//99
usemtl glass
f 266//99 261//99 260//99 259//99 258//99 271//99 270//99 269//99 268//99 267//99
