# 3ds Max Wavefront OBJ Exporter v0.97b - (c)2007 guruware
# File Created: 13.05.2018 14:27:08

mtllib hedge.mtl

#
# object Cone001
#

v  -39.1560 0.0000 -22.6168
v  -39.1560 0.0000 -38.8802
v  -27.6560 0.0000 -34.1168
v  -22.8926 0.0000 -22.6168
v  -55.4195 0.0000 -22.6168
v  -50.6560 0.0000 -34.1168
v  -39.1560 0.0000 -6.3534
v  -50.6560 0.0000 -11.1168
v  -27.6560 0.0000 -11.1168
v  -28.2475 5.5769 -33.5253
v  -23.7291 5.5769 -22.6168
v  -39.1560 5.5769 -38.0437
v  -50.0645 5.5769 -33.5253
v  -54.5829 5.5769 -22.6168
v  -50.0645 5.5769 -11.7083
v  -39.1560 5.5769 -7.1899
v  -28.2475 5.5769 -11.7083
v  -28.8391 11.1538 -32.9337
v  -24.5656 11.1538 -22.6168
v  -39.1560 11.1538 -37.2072
v  -49.4730 11.1538 -32.9337
v  -53.7464 11.1538 -22.6168
v  -49.4730 11.1538 -12.2998
v  -39.1560 11.1538 -8.0264
v  -28.8391 11.1538 -12.2998
v  -29.4306 16.7308 -32.3422
v  -25.4022 16.7308 -22.6168
v  -39.1560 16.7308 -36.3706
v  -48.8814 16.7308 -32.3422
v  -52.9098 16.7308 -22.6168
v  -48.8814 16.7308 -12.8914
v  -39.1560 16.7308 -8.8630
v  -29.4306 16.7308 -12.8914
v  -30.0221 22.3077 -31.7507
v  -26.2387 22.3077 -22.6168
v  -39.1560 22.3077 -35.5341
v  -48.2899 22.3077 -31.7507
v  -52.0733 22.3077 -22.6168
v  -48.2899 22.3077 -13.4829
v  -39.1560 22.3077 -9.6995
v  -30.0221 22.3077 -13.4829
v  -30.6136 27.8846 -31.1592
v  -27.0753 27.8846 -22.6168
v  -39.1560 27.8846 -34.6976
v  -47.6984 27.8846 -31.1592
v  -51.2368 27.8846 -22.6168
v  -47.6984 27.8846 -14.0744
v  -39.1560 27.8846 -10.5360
v  -30.6136 27.8846 -14.0744
v  -39.1560 27.8846 -22.6168
# 50 vertices

vn 0.0000 -1.0000 -0.0000
vn -0.0000 -0.5736 -0.8191
vn 0.5792 -0.5736 -0.5792
vn 0.8191 -0.5736 0.0000
vn -0.8191 -0.5736 0.0000
vn -0.5792 -0.5736 -0.5792
vn -0.0000 -0.5736 0.8191
vn -0.5792 -0.5736 0.5792
vn 0.5792 -0.5736 0.5792
vn 0.6993 0.1483 -0.6993
vn 0.9889 0.1483 -0.0000
vn -0.0000 0.1483 -0.9889
vn -0.6993 0.1483 -0.6993
vn -0.9889 0.1483 0.0000
vn -0.6993 0.1483 0.6993
vn -0.0000 0.1483 0.9889
vn 0.6993 0.1483 0.6993
vn 0.9889 0.1483 0.0000
vn 0.5150 0.6853 -0.5150
vn 0.7283 0.6853 0.0000
vn -0.0000 0.6853 -0.7283
vn -0.5150 0.6853 -0.5150
vn -0.7283 0.6853 0.0000
vn -0.5150 0.6853 0.5150
vn -0.0000 0.6853 0.7283
vn 0.5150 0.6853 0.5150
vn 0.0000 1.0000 -0.0000
# 27 vertex normals

vt 0.5000 0.0000 0.0000
vt 0.0000 0.0000 1.0000
vt -0.1250 0.0000 1.0000
vt 0.1161 0.0000 0.4142
vt 0.2500 0.0000 1.0000
vt 0.1250 0.0000 1.0000
vt 0.5000 0.0000 1.0000
vt 0.3750 0.0000 1.0000
vt 0.7500 0.0000 1.0000
vt 0.6250 0.0000 1.0000
vt 0.8750 0.0000 1.0000
vt 0.8750 0.2000 0.9486
vt 0.7500 0.2000 0.9486
vt 0.0000 0.2000 0.9486
vt -0.1250 0.2000 0.9486
vt 0.1250 0.2000 0.9486
vt 0.2500 0.2000 0.9486
vt 0.3750 0.2000 0.9486
vt 0.5000 0.2000 0.9486
vt 0.6250 0.2000 0.9486
vt 0.8750 0.4000 0.8971
vt 0.7500 0.4000 0.8971
vt 0.0000 0.4000 0.8971
vt -0.1250 0.4000 0.8971
vt 0.1250 0.4000 0.8971
vt 0.2500 0.4000 0.8971
vt 0.3750 0.4000 0.8971
vt 0.5000 0.4000 0.8971
vt 0.6250 0.4000 0.8971
vt 0.8750 0.6000 0.8457
vt 0.7500 0.6000 0.8457
vt 0.0000 0.6000 0.8457
vt -0.1250 0.6000 0.8457
vt 0.1250 0.6000 0.8457
vt 0.2500 0.6000 0.8457
vt 0.3750 0.6000 0.8457
vt 0.5000 0.6000 0.8457
vt 0.6250 0.6000 0.8457
vt 0.8750 0.8000 0.7943
vt 0.7500 0.8000 0.7943
vt 0.0000 0.8000 0.7943
vt -0.1250 0.8000 0.7943
vt 0.1250 0.8000 0.7943
vt 0.2500 0.8000 0.7943
vt 0.3750 0.8000 0.7943
vt 0.5000 0.8000 0.7943
vt 0.6250 0.8000 0.7943
vt 0.8750 1.0000 0.7428
vt 0.7500 1.0000 0.7428
vt 0.0000 1.0000 0.7428
vt -0.1250 1.0000 0.7428
vt 0.1250 1.0000 0.7428
vt 0.2500 1.0000 0.7428
vt 0.3750 1.0000 0.7428
vt 0.5000 1.0000 0.7428
vt 0.6250 1.0000 0.7428
vt 0.5000 1.0000 0.0000
# 57 texture coords

o Cone001
g Cone001
usemtl wire_006135006
s 1
f 1/1/1 2/2/2 3/3/3 4/4/4 
f 1/1/1 5/5/5 6/6/6 2/2/2 
f 1/1/1 7/7/7 8/8/8 5/5/5 
f 1/1/1 4/9/4 9/10/9 7/7/7 
s 8
f 4/9/4 3/11/3 10/12/10 11/13/11 
f 3/3/3 2/2/2 12/14/12 10/15/10 
f 2/2/2 6/6/6 13/16/13 12/14/12 
f 6/6/6 5/5/5 14/17/14 13/16/13 
f 5/5/5 8/8/8 15/18/15 14/17/14 
f 8/8/8 7/7/7 16/19/16 15/18/15 
f 7/7/7 9/10/9 17/20/17 16/19/16 
f 9/10/9 4/9/4 11/13/11 17/20/17 
f 11/13/11 10/12/10 18/21/10 19/22/11 
f 10/15/10 12/14/12 20/23/12 18/24/10 
f 12/14/12 13/16/13 21/25/13 20/23/12 
f 13/16/13 14/17/14 22/26/14 21/25/13 
f 14/17/14 15/18/15 23/27/15 22/26/14 
f 15/18/15 16/19/16 24/28/16 23/27/15 
f 16/19/16 17/20/17 25/29/17 24/28/16 
f 17/20/17 11/13/11 19/22/11 25/29/17 
f 19/22/11 18/21/10 26/30/10 27/31/18 
f 18/24/10 20/23/12 28/32/12 26/33/10 
f 20/23/12 21/25/13 29/34/13 28/32/12 
f 21/25/13 22/26/14 30/35/14 29/34/13 
f 22/26/14 23/27/15 31/36/15 30/35/14 
f 23/27/15 24/28/16 32/37/16 31/36/15 
f 24/28/16 25/29/17 33/38/17 32/37/16 
f 25/29/17 19/22/11 27/31/18 33/38/17 
f 27/31/18 26/30/10 34/39/10 35/40/18 
f 26/33/10 28/32/12 36/41/12 34/42/10 
f 28/32/12 29/34/13 37/43/13 36/41/12 
f 29/34/13 30/35/14 38/44/14 37/43/13 
f 30/35/14 31/36/15 39/45/15 38/44/14 
f 31/36/15 32/37/16 40/46/16 39/45/15 
f 32/37/16 33/38/17 41/47/17 40/46/16 
f 33/38/17 27/31/18 35/40/18 41/47/17 
f 35/40/18 34/39/10 42/48/19 43/49/20 
f 34/42/10 36/41/12 44/50/21 42/51/19 
f 36/41/12 37/43/13 45/52/22 44/50/21 
f 37/43/13 38/44/14 46/53/23 45/52/22 
f 38/44/14 39/45/15 47/54/24 46/53/23 
f 39/45/15 40/46/16 48/55/25 47/54/24 
f 40/46/16 41/47/17 49/56/26 48/55/25 
f 41/47/17 35/40/18 43/49/20 49/56/26 
s 1
f 50/57/27 49/56/26 43/49/20 42/48/19 
f 50/57/27 42/51/19 44/50/21 45/52/22 
f 50/57/27 45/52/22 46/53/23 47/54/24 
f 50/57/27 47/54/24 48/55/25 49/56/26 
# 48 polygons

#
# object Cone002
#

v  -21.9708 0.0000 -22.6168
v  -21.9708 0.0000 -38.8802
v  -10.4708 0.0000 -34.1168
v  -5.7074 0.0000 -22.6168
v  -38.2343 0.0000 -22.6168
v  -33.4708 0.0000 -34.1168
v  -21.9708 0.0000 -6.3534
v  -33.4708 0.0000 -11.1168
v  -10.4708 0.0000 -11.1168
v  -11.0624 5.5769 -33.5253
v  -6.5439 5.5769 -22.6168
v  -21.9708 5.5769 -38.0437
v  -32.8793 5.5769 -33.5253
v  -37.3977 5.5769 -22.6168
v  -32.8793 5.5769 -11.7083
v  -21.9708 5.5769 -7.1899
v  -11.0624 5.5769 -11.7083
v  -11.6539 11.1538 -32.9337
v  -7.3805 11.1538 -22.6168
v  -21.9708 11.1538 -37.2072
v  -32.2878 11.1538 -32.9337
v  -36.5612 11.1538 -22.6168
v  -32.2878 11.1538 -12.2998
v  -21.9708 11.1538 -8.0264
v  -11.6539 11.1538 -12.2998
v  -12.2454 16.7308 -32.3422
v  -8.2170 16.7308 -22.6168
v  -21.9708 16.7308 -36.3706
v  -31.6963 16.7308 -32.3422
v  -35.7247 16.7308 -22.6168
v  -31.6963 16.7308 -12.8914
v  -21.9708 16.7308 -8.8630
v  -12.2454 16.7308 -12.8914
v  -12.8369 22.3077 -31.7507
v  -9.0535 22.3077 -22.6168
v  -21.9708 22.3077 -35.5341
v  -31.1047 22.3077 -31.7507
v  -34.8881 22.3077 -22.6168
v  -31.1047 22.3077 -13.4829
v  -21.9708 22.3077 -9.6995
v  -12.8369 22.3077 -13.4829
v  -13.4284 27.8846 -31.1592
v  -9.8901 27.8846 -22.6168
v  -21.9708 27.8846 -34.6976
v  -30.5132 27.8846 -31.1592
v  -34.0516 27.8846 -22.6168
v  -30.5132 27.8846 -14.0744
v  -21.9708 27.8846 -10.5360
v  -13.4284 27.8846 -14.0744
v  -21.9708 27.8846 -22.6168
# 50 vertices

vn 0.0000 -1.0000 -0.0000
vn -0.0000 -0.5736 -0.8191
vn 0.5792 -0.5736 -0.5792
vn 0.8191 -0.5736 0.0000
vn -0.8191 -0.5736 0.0000
vn -0.5792 -0.5736 -0.5792
vn -0.0000 -0.5736 0.8191
vn -0.5792 -0.5736 0.5792
vn 0.5792 -0.5736 0.5792
vn 0.6993 0.1483 -0.6993
vn 0.9889 0.1483 -0.0000
vn -0.0000 0.1483 -0.9889
vn -0.6993 0.1483 -0.6993
vn -0.9889 0.1483 0.0000
vn -0.6993 0.1483 0.6993
vn -0.0000 0.1483 0.9889
vn 0.6993 0.1483 0.6993
vn 0.9889 0.1483 0.0000
vn 0.5150 0.6853 -0.5150
vn 0.7283 0.6853 0.0000
vn -0.0000 0.6853 -0.7283
vn -0.5150 0.6853 -0.5150
vn -0.7283 0.6853 0.0000
vn -0.5150 0.6853 0.5150
vn -0.0000 0.6853 0.7283
vn 0.5150 0.6853 0.5150
vn 0.0000 1.0000 -0.0000
# 27 vertex normals

vt 0.5000 0.0000 0.0000
vt 0.0000 0.0000 1.0000
vt -0.1250 0.0000 1.0000
vt 0.1161 0.0000 0.4142
vt 0.2500 0.0000 1.0000
vt 0.1250 0.0000 1.0000
vt 0.5000 0.0000 1.0000
vt 0.3750 0.0000 1.0000
vt 0.7500 0.0000 1.0000
vt 0.6250 0.0000 1.0000
vt 0.8750 0.0000 1.0000
vt 0.8750 0.2000 0.9486
vt 0.7500 0.2000 0.9486
vt 0.0000 0.2000 0.9486
vt -0.1250 0.2000 0.9486
vt 0.1250 0.2000 0.9486
vt 0.2500 0.2000 0.9486
vt 0.3750 0.2000 0.9486
vt 0.5000 0.2000 0.9486
vt 0.6250 0.2000 0.9486
vt 0.8750 0.4000 0.8971
vt 0.7500 0.4000 0.8971
vt 0.0000 0.4000 0.8971
vt -0.1250 0.4000 0.8971
vt 0.1250 0.4000 0.8971
vt 0.2500 0.4000 0.8971
vt 0.3750 0.4000 0.8971
vt 0.5000 0.4000 0.8971
vt 0.6250 0.4000 0.8971
vt 0.8750 0.6000 0.8457
vt 0.7500 0.6000 0.8457
vt 0.0000 0.6000 0.8457
vt -0.1250 0.6000 0.8457
vt 0.1250 0.6000 0.8457
vt 0.2500 0.6000 0.8457
vt 0.3750 0.6000 0.8457
vt 0.5000 0.6000 0.8457
vt 0.6250 0.6000 0.8457
vt 0.8750 0.8000 0.7943
vt 0.7500 0.8000 0.7943
vt 0.0000 0.8000 0.7943
vt -0.1250 0.8000 0.7943
vt 0.1250 0.8000 0.7943
vt 0.2500 0.8000 0.7943
vt 0.3750 0.8000 0.7943
vt 0.5000 0.8000 0.7943
vt 0.6250 0.8000 0.7943
vt 0.8750 1.0000 0.7428
vt 0.7500 1.0000 0.7428
vt 0.0000 1.0000 0.7428
vt -0.1250 1.0000 0.7428
vt 0.1250 1.0000 0.7428
vt 0.2500 1.0000 0.7428
vt 0.3750 1.0000 0.7428
vt 0.5000 1.0000 0.7428
vt 0.6250 1.0000 0.7428
vt 0.5000 1.0000 0.0000
# 57 texture coords

o Cone002
g Cone002
usemtl wire_006135006
s 1
f 51/58/28 52/59/29 53/60/30 54/61/31 
f 51/58/28 55/62/32 56/63/33 52/59/29 
f 51/58/28 57/64/34 58/65/35 55/62/32 
f 51/58/28 54/66/31 59/67/36 57/64/34 
s 8
f 54/66/31 53/68/30 60/69/37 61/70/38 
f 53/60/30 52/59/29 62/71/39 60/72/37 
f 52/59/29 56/63/33 63/73/40 62/71/39 
f 56/63/33 55/62/32 64/74/41 63/73/40 
f 55/62/32 58/65/35 65/75/42 64/74/41 
f 58/65/35 57/64/34 66/76/43 65/75/42 
f 57/64/34 59/67/36 67/77/44 66/76/43 
f 59/67/36 54/66/31 61/70/38 67/77/44 
f 61/70/38 60/69/37 68/78/37 69/79/38 
f 60/72/37 62/71/39 70/80/39 68/81/37 
f 62/71/39 63/73/40 71/82/40 70/80/39 
f 63/73/40 64/74/41 72/83/41 71/82/40 
f 64/74/41 65/75/42 73/84/42 72/83/41 
f 65/75/42 66/76/43 74/85/43 73/84/42 
f 66/76/43 67/77/44 75/86/44 74/85/43 
f 67/77/44 61/70/38 69/79/38 75/86/44 
f 69/79/38 68/78/37 76/87/37 77/88/45 
f 68/81/37 70/80/39 78/89/39 76/90/37 
f 70/80/39 71/82/40 79/91/40 78/89/39 
f 71/82/40 72/83/41 80/92/41 79/91/40 
f 72/83/41 73/84/42 81/93/42 80/92/41 
f 73/84/42 74/85/43 82/94/43 81/93/42 
f 74/85/43 75/86/44 83/95/44 82/94/43 
f 75/86/44 69/79/38 77/88/45 83/95/44 
f 77/88/45 76/87/37 84/96/37 85/97/45 
f 76/90/37 78/89/39 86/98/39 84/99/37 
f 78/89/39 79/91/40 87/100/40 86/98/39 
f 79/91/40 80/92/41 88/101/41 87/100/40 
f 80/92/41 81/93/42 89/102/42 88/101/41 
f 81/93/42 82/94/43 90/103/43 89/102/42 
f 82/94/43 83/95/44 91/104/44 90/103/43 
f 83/95/44 77/88/45 85/97/45 91/104/44 
f 85/97/45 84/96/37 92/105/46 93/106/47 
f 84/99/37 86/98/39 94/107/48 92/108/46 
f 86/98/39 87/100/40 95/109/49 94/107/48 
f 87/100/40 88/101/41 96/110/50 95/109/49 
f 88/101/41 89/102/42 97/111/51 96/110/50 
f 89/102/42 90/103/43 98/112/52 97/111/51 
f 90/103/43 91/104/44 99/113/53 98/112/52 
f 91/104/44 85/97/45 93/106/47 99/113/53 
s 1
f 100/114/54 99/113/53 93/106/47 92/105/46 
f 100/114/54 92/108/46 94/107/48 95/109/49 
f 100/114/54 95/109/49 96/110/50 97/111/51 
f 100/114/54 97/111/51 98/112/52 99/113/53 
# 48 polygons

#
# object Cone003
#

v  -4.7383 0.0000 -22.6168
v  -4.7383 0.0000 -38.8802
v  6.7617 0.0000 -34.1168
v  11.5252 0.0000 -22.6168
v  -21.0017 0.0000 -22.6168
v  -16.2383 0.0000 -34.1168
v  -4.7383 0.0000 -6.3534
v  -16.2383 0.0000 -11.1168
v  6.7617 0.0000 -11.1168
v  6.1702 5.5769 -33.5253
v  10.6886 5.5769 -22.6168
v  -4.7383 5.5769 -38.0437
v  -15.6468 5.5769 -33.5253
v  -20.1652 5.5769 -22.6168
v  -15.6467 5.5769 -11.7083
v  -4.7383 5.5769 -7.1899
v  6.1702 5.5769 -11.7083
v  5.5787 11.1538 -32.9337
v  9.8521 11.1538 -22.6168
v  -4.7383 11.1538 -37.2072
v  -15.0552 11.1538 -32.9337
v  -19.3286 11.1538 -22.6168
v  -15.0552 11.1538 -12.2998
v  -4.7383 11.1538 -8.0264
v  5.5787 11.1538 -12.2998
v  4.9871 16.7308 -32.3422
v  9.0155 16.7308 -22.6168
v  -4.7383 16.7308 -36.3706
v  -14.4637 16.7308 -32.3422
v  -18.4921 16.7308 -22.6168
v  -14.4637 16.7308 -12.8914
v  -4.7383 16.7308 -8.8630
v  4.9871 16.7308 -12.8914
v  4.3956 22.3077 -31.7507
v  8.1790 22.3077 -22.6168
v  -4.7383 22.3077 -35.5341
v  -13.8722 22.3077 -31.7507
v  -17.6556 22.3077 -22.6168
v  -13.8722 22.3077 -13.4829
v  -4.7383 22.3077 -9.6995
v  4.3956 22.3077 -13.4829
v  3.8041 27.8846 -31.1592
v  7.3425 27.8846 -22.6168
v  -4.7383 27.8846 -34.6976
v  -13.2807 27.8846 -31.1592
v  -16.8190 27.8846 -22.6168
v  -13.2807 27.8846 -14.0744
v  -4.7383 27.8846 -10.5360
v  3.8041 27.8846 -14.0744
v  -4.7383 27.8846 -22.6168
# 50 vertices

vn 0.0000 -1.0000 -0.0000
vn -0.0000 -0.5736 -0.8191
vn 0.5792 -0.5736 -0.5792
vn 0.8191 -0.5736 0.0000
vn -0.8191 -0.5736 0.0000
vn -0.5792 -0.5736 -0.5792
vn -0.0000 -0.5736 0.8191
vn -0.5792 -0.5736 0.5792
vn 0.5792 -0.5736 0.5792
vn 0.6993 0.1483 -0.6993
vn 0.9889 0.1483 -0.0000
vn -0.0000 0.1483 -0.9889
vn -0.6993 0.1483 -0.6993
vn -0.9889 0.1483 0.0000
vn -0.6993 0.1483 0.6993
vn -0.0000 0.1483 0.9889
vn 0.6993 0.1483 0.6993
vn 0.9889 0.1483 0.0000
vn 0.5150 0.6853 -0.5150
vn 0.7283 0.6853 0.0000
vn -0.0000 0.6853 -0.7283
vn -0.5150 0.6853 -0.5150
vn -0.7283 0.6853 0.0000
vn -0.5150 0.6853 0.5150
vn -0.0000 0.6853 0.7283
vn 0.5150 0.6853 0.5150
vn 0.0000 1.0000 -0.0000
# 27 vertex normals

vt 0.5000 0.0000 0.0000
vt 0.0000 0.0000 1.0000
vt -0.1250 0.0000 1.0000
vt 0.1161 0.0000 0.4142
vt 0.2500 0.0000 1.0000
vt 0.1250 0.0000 1.0000
vt 0.5000 0.0000 1.0000
vt 0.3750 0.0000 1.0000
vt 0.7500 0.0000 1.0000
vt 0.6250 0.0000 1.0000
vt 0.8750 0.0000 1.0000
vt 0.8750 0.2000 0.9486
vt 0.7500 0.2000 0.9486
vt 0.0000 0.2000 0.9486
vt -0.1250 0.2000 0.9486
vt 0.1250 0.2000 0.9486
vt 0.2500 0.2000 0.9486
vt 0.3750 0.2000 0.9486
vt 0.5000 0.2000 0.9486
vt 0.6250 0.2000 0.9486
vt 0.8750 0.4000 0.8971
vt 0.7500 0.4000 0.8971
vt 0.0000 0.4000 0.8971
vt -0.1250 0.4000 0.8971
vt 0.1250 0.4000 0.8971
vt 0.2500 0.4000 0.8971
vt 0.3750 0.4000 0.8971
vt 0.5000 0.4000 0.8971
vt 0.6250 0.4000 0.8971
vt 0.8750 0.6000 0.8457
vt 0.7500 0.6000 0.8457
vt 0.0000 0.6000 0.8457
vt -0.1250 0.6000 0.8457
vt 0.1250 0.6000 0.8457
vt 0.2500 0.6000 0.8457
vt 0.3750 0.6000 0.8457
vt 0.5000 0.6000 0.8457
vt 0.6250 0.6000 0.8457
vt 0.8750 0.8000 0.7943
vt 0.7500 0.8000 0.7943
vt 0.0000 0.8000 0.7943
vt -0.1250 0.8000 0.7943
vt 0.1250 0.8000 0.7943
vt 0.2500 0.8000 0.7943
vt 0.3750 0.8000 0.7943
vt 0.5000 0.8000 0.7943
vt 0.6250 0.8000 0.7943
vt 0.8750 1.0000 0.7428
vt 0.7500 1.0000 0.7428
vt 0.0000 1.0000 0.7428
vt -0.1250 1.0000 0.7428
vt 0.1250 1.0000 0.7428
vt 0.2500 1.0000 0.7428
vt 0.3750 1.0000 0.7428
vt 0.5000 1.0000 0.7428
vt 0.6250 1.0000 0.7428
vt 0.5000 1.0000 0.0000
# 57 texture coords

o Cone003
g Cone003
usemtl wire_006135006
s 1
f 101/115/55 102/116/56 103/117/57 104/118/58 
f 101/115/55 105/119/59 106/120/60 102/116/56 
f 101/115/55 107/121/61 108/122/62 105/119/59 
f 101/115/55 104/123/58 109/124/63 107/121/61 
s 8
f 104/123/58 103/125/57 110/126/64 111/127/65 
f 103/117/57 102/116/56 112/128/66 110/129/64 
f 102/116/56 106/120/60 113/130/67 112/128/66 
f 106/120/60 105/119/59 114/131/68 113/130/67 
f 105/119/59 108/122/62 115/132/69 114/131/68 
f 108/122/62 107/121/61 116/133/70 115/132/69 
f 107/121/61 109/124/63 117/134/71 116/133/70 
f 109/124/63 104/123/58 111/127/65 117/134/71 
f 111/127/65 110/126/64 118/135/64 119/136/65 
f 110/129/64 112/128/66 120/137/66 118/138/64 
f 112/128/66 113/130/67 121/139/67 120/137/66 
f 113/130/67 114/131/68 122/140/68 121/139/67 
f 114/131/68 115/132/69 123/141/69 122/140/68 
f 115/132/69 116/133/70 124/142/70 123/141/69 
f 116/133/70 117/134/71 125/143/71 124/142/70 
f 117/134/71 111/127/65 119/136/65 125/143/71 
f 119/136/65 118/135/64 126/144/64 127/145/72 
f 118/138/64 120/137/66 128/146/66 126/147/64 
f 120/137/66 121/139/67 129/148/67 128/146/66 
f 121/139/67 122/140/68 130/149/68 129/148/67 
f 122/140/68 123/141/69 131/150/69 130/149/68 
f 123/141/69 124/142/70 132/151/70 131/150/69 
f 124/142/70 125/143/71 133/152/71 132/151/70 
f 125/143/71 119/136/65 127/145/72 133/152/71 
f 127/145/72 126/144/64 134/153/64 135/154/72 
f 126/147/64 128/146/66 136/155/66 134/156/64 
f 128/146/66 129/148/67 137/157/67 136/155/66 
f 129/148/67 130/149/68 138/158/68 137/157/67 
f 130/149/68 131/150/69 139/159/69 138/158/68 
f 131/150/69 132/151/70 140/160/70 139/159/69 
f 132/151/70 133/152/71 141/161/71 140/160/70 
f 133/152/71 127/145/72 135/154/72 141/161/71 
f 135/154/72 134/153/64 142/162/73 143/163/74 
f 134/156/64 136/155/66 144/164/75 142/165/73 
f 136/155/66 137/157/67 145/166/76 144/164/75 
f 137/157/67 138/158/68 146/167/77 145/166/76 
f 138/158/68 139/159/69 147/168/78 146/167/77 
f 139/159/69 140/160/70 148/169/79 147/168/78 
f 140/160/70 141/161/71 149/170/80 148/169/79 
f 141/161/71 135/154/72 143/163/74 149/170/80 
s 1
f 150/171/81 149/170/80 143/163/74 142/162/73 
f 150/171/81 142/165/73 144/164/75 145/166/76 
f 150/171/81 145/166/76 146/167/77 147/168/78 
f 150/171/81 147/168/78 148/169/79 149/170/80 
# 48 polygons

#
# object Cone004
#

v  11.8761 0.0000 -22.6168
v  11.8761 0.0000 -38.8802
v  23.3761 0.0000 -34.1168
v  28.1396 0.0000 -22.6168
v  -4.3873 0.0000 -22.6168
v  0.3762 0.0000 -34.1168
v  11.8761 0.0000 -6.3534
v  0.3762 0.0000 -11.1168
v  23.3761 0.0000 -11.1168
v  22.7846 5.5769 -33.5253
v  27.3030 5.5769 -22.6168
v  11.8761 5.5769 -38.0437
v  0.9677 5.5769 -33.5253
v  -3.5508 5.5769 -22.6168
v  0.9677 5.5769 -11.7083
v  11.8761 5.5769 -7.1899
v  22.7846 5.5769 -11.7083
v  22.1931 11.1538 -32.9337
v  26.4665 11.1538 -22.6168
v  11.8761 11.1538 -37.2072
v  1.5592 11.1538 -32.9337
v  -2.7142 11.1538 -22.6168
v  1.5592 11.1538 -12.2998
v  11.8761 11.1538 -8.0264
v  22.1931 11.1538 -12.2998
v  21.6016 16.7308 -32.3422
v  25.6300 16.7308 -22.6168
v  11.8761 16.7308 -36.3706
v  2.1507 16.7308 -32.3422
v  -1.8777 16.7308 -22.6168
v  2.1507 16.7308 -12.8914
v  11.8761 16.7308 -8.8630
v  21.6016 16.7308 -12.8914
v  21.0100 22.3077 -31.7507
v  24.7934 22.3077 -22.6168
v  11.8761 22.3077 -35.5341
v  2.7422 22.3077 -31.7507
v  -1.0412 22.3077 -22.6168
v  2.7422 22.3077 -13.4829
v  11.8761 22.3077 -9.6995
v  21.0100 22.3077 -13.4829
v  20.4185 27.8846 -31.1592
v  23.9569 27.8846 -22.6168
v  11.8761 27.8846 -34.6976
v  3.3338 27.8846 -31.1592
v  -0.2046 27.8846 -22.6168
v  3.3338 27.8846 -14.0744
v  11.8761 27.8846 -10.5360
v  20.4185 27.8846 -14.0744
v  11.8761 27.8846 -22.6168
# 50 vertices

vn 0.0000 -1.0000 -0.0000
vn -0.0000 -0.5736 -0.8191
vn 0.5792 -0.5736 -0.5792
vn 0.8191 -0.5736 0.0000
vn -0.8191 -0.5736 0.0000
vn -0.5792 -0.5736 -0.5792
vn -0.0000 -0.5736 0.8191
vn -0.5792 -0.5736 0.5792
vn 0.5792 -0.5736 0.5792
vn 0.6993 0.1483 -0.6993
vn 0.9889 0.1483 -0.0000
vn -0.0000 0.1483 -0.9889
vn -0.6993 0.1483 -0.6993
vn -0.9889 0.1483 0.0000
vn -0.6993 0.1483 0.6993
vn -0.0000 0.1483 0.9889
vn 0.6993 0.1483 0.6993
vn 0.9889 0.1483 0.0000
vn 0.5150 0.6853 -0.5150
vn 0.7283 0.6853 0.0000
vn -0.0000 0.6853 -0.7283
vn -0.5150 0.6853 -0.5150
vn -0.7283 0.6853 0.0000
vn -0.5150 0.6853 0.5150
vn -0.0000 0.6853 0.7283
vn 0.5150 0.6853 0.5150
vn 0.0000 1.0000 -0.0000
# 27 vertex normals

vt 0.5000 0.0000 0.0000
vt 0.0000 0.0000 1.0000
vt -0.1250 0.0000 1.0000
vt 0.1161 0.0000 0.4142
vt 0.2500 0.0000 1.0000
vt 0.1250 0.0000 1.0000
vt 0.5000 0.0000 1.0000
vt 0.3750 0.0000 1.0000
vt 0.7500 0.0000 1.0000
vt 0.6250 0.0000 1.0000
vt 0.8750 0.0000 1.0000
vt 0.8750 0.2000 0.9486
vt 0.7500 0.2000 0.9486
vt 0.0000 0.2000 0.9486
vt -0.1250 0.2000 0.9486
vt 0.1250 0.2000 0.9486
vt 0.2500 0.2000 0.9486
vt 0.3750 0.2000 0.9486
vt 0.5000 0.2000 0.9486
vt 0.6250 0.2000 0.9486
vt 0.8750 0.4000 0.8971
vt 0.7500 0.4000 0.8971
vt 0.0000 0.4000 0.8971
vt -0.1250 0.4000 0.8971
vt 0.1250 0.4000 0.8971
vt 0.2500 0.4000 0.8971
vt 0.3750 0.4000 0.8971
vt 0.5000 0.4000 0.8971
vt 0.6250 0.4000 0.8971
vt 0.8750 0.6000 0.8457
vt 0.7500 0.6000 0.8457
vt 0.0000 0.6000 0.8457
vt -0.1250 0.6000 0.8457
vt 0.1250 0.6000 0.8457
vt 0.2500 0.6000 0.8457
vt 0.3750 0.6000 0.8457
vt 0.5000 0.6000 0.8457
vt 0.6250 0.6000 0.8457
vt 0.8750 0.8000 0.7943
vt 0.7500 0.8000 0.7943
vt 0.0000 0.8000 0.7943
vt -0.1250 0.8000 0.7943
vt 0.1250 0.8000 0.7943
vt 0.2500 0.8000 0.7943
vt 0.3750 0.8000 0.7943
vt 0.5000 0.8000 0.7943
vt 0.6250 0.8000 0.7943
vt 0.8750 1.0000 0.7428
vt 0.7500 1.0000 0.7428
vt 0.0000 1.0000 0.7428
vt -0.1250 1.0000 0.7428
vt 0.1250 1.0000 0.7428
vt 0.2500 1.0000 0.7428
vt 0.3750 1.0000 0.7428
vt 0.5000 1.0000 0.7428
vt 0.6250 1.0000 0.7428
vt 0.5000 1.0000 0.0000
# 57 texture coords

o Cone004
g Cone004
usemtl wire_006135006
s 1
f 151/172/82 152/173/83 153/174/84 154/175/85 
f 151/172/82 155/176/86 156/177/87 152/173/83 
f 151/172/82 157/178/88 158/179/89 155/176/86 
f 151/172/82 154/180/85 159/181/90 157/178/88 
s 8
f 154/180/85 153/182/84 160/183/91 161/184/92 
f 153/174/84 152/173/83 162/185/93 160/186/91 
f 152/173/83 156/177/87 163/187/94 162/185/93 
f 156/177/87 155/176/86 164/188/95 163/187/94 
f 155/176/86 158/179/89 165/189/96 164/188/95 
f 158/179/89 157/178/88 166/190/97 165/189/96 
f 157/178/88 159/181/90 167/191/98 166/190/97 
f 159/181/90 154/180/85 161/184/92 167/191/98 
f 161/184/92 160/183/91 168/192/91 169/193/92 
f 160/186/91 162/185/93 170/194/93 168/195/91 
f 162/185/93 163/187/94 171/196/94 170/194/93 
f 163/187/94 164/188/95 172/197/95 171/196/94 
f 164/188/95 165/189/96 173/198/96 172/197/95 
f 165/189/96 166/190/97 174/199/97 173/198/96 
f 166/190/97 167/191/98 175/200/98 174/199/97 
f 167/191/98 161/184/92 169/193/92 175/200/98 
f 169/193/92 168/192/91 176/201/91 177/202/99 
f 168/195/91 170/194/93 178/203/93 176/204/91 
f 170/194/93 171/196/94 179/205/94 178/203/93 
f 171/196/94 172/197/95 180/206/95 179/205/94 
f 172/197/95 173/198/96 181/207/96 180/206/95 
f 173/198/96 174/199/97 182/208/97 181/207/96 
f 174/199/97 175/200/98 183/209/98 182/208/97 
f 175/200/98 169/193/92 177/202/99 183/209/98 
f 177/202/99 176/201/91 184/210/91 185/211/99 
f 176/204/91 178/203/93 186/212/93 184/213/91 
f 178/203/93 179/205/94 187/214/94 186/212/93 
f 179/205/94 180/206/95 188/215/95 187/214/94 
f 180/206/95 181/207/96 189/216/96 188/215/95 
f 181/207/96 182/208/97 190/217/97 189/216/96 
f 182/208/97 183/209/98 191/218/98 190/217/97 
f 183/209/98 177/202/99 185/211/99 191/218/98 
f 185/211/99 184/210/91 192/219/100 193/220/101 
f 184/213/91 186/212/93 194/221/102 192/222/100 
f 186/212/93 187/214/94 195/223/103 194/221/102 
f 187/214/94 188/215/95 196/224/104 195/223/103 
f 188/215/95 189/216/96 197/225/105 196/224/104 
f 189/216/96 190/217/97 198/226/106 197/225/105 
f 190/217/97 191/218/98 199/227/107 198/226/106 
f 191/218/98 185/211/99 193/220/101 199/227/107 
s 1
f 200/228/108 199/227/107 193/220/101 192/219/100 
f 200/228/108 192/222/100 194/221/102 195/223/103 
f 200/228/108 195/223/103 196/224/104 197/225/105 
f 200/228/108 197/225/105 198/226/106 199/227/107 
# 48 polygons

#
# object Box001
#

v  15.2706 0.5704 -35.0865
v  15.2706 27.8296 -35.0865
v  15.2706 27.8296 -10.1977
v  15.2706 0.5704 -10.1977
v  -42.8034 0.5704 -35.0865
v  -42.8034 0.5704 -10.1977
v  -42.8034 27.8296 -10.1977
v  -42.8034 27.8296 -35.0865
# 8 vertices

vn 0.5774 -0.5774 -0.5774
vn 0.5774 0.5774 -0.5774
vn 0.5774 0.5774 0.5774
vn 0.5774 -0.5774 0.5774
vn -0.5774 -0.5774 -0.5774
vn -0.5774 -0.5774 0.5774
vn -0.5774 0.5774 0.5774
vn -0.5774 0.5774 -0.5774
# 8 vertex normals

vt 1.0000 0.0000 0.0000
vt 1.0000 1.0000 0.0000
vt 0.0000 1.0000 0.0000
vt 0.0000 0.0000 0.0000
# 4 texture coords

o Box001
g Box001
usemtl wire_006135006
s 2
f 201/229/109 202/230/110 203/231/111 204/232/112 
s 4
f 205/232/113 206/229/114 207/230/115 208/231/116 
s 8
f 201/232/109 204/229/112 206/230/114 205/231/113 
s 16
f 204/232/112 203/229/111 207/230/115 206/231/114 
s 32
f 203/232/111 202/229/110 208/230/116 207/231/115 
s 64
f 202/232/110 201/229/109 205/230/113 208/231/116 
# 6 polygons

