# Blender v2.78 (sub 0) OBJ File: 'kundvagn.blend'
# www.blender.org
mtllib kundvagnHJUL.mtl
o Hjul_HF_Cylinder.007
v 1.297113 -1.977738 -5.406605
v 1.480383 -1.977738 -5.406605
v 1.297113 -2.112296 -5.375893
v 1.480383 -2.112296 -5.375893
v 1.297113 -2.220204 -5.289840
v 1.480383 -2.220204 -5.289840
v 1.297113 -2.280088 -5.165489
v 1.480383 -2.280088 -5.165489
v 1.297113 -2.280088 -5.027471
v 1.480383 -2.280088 -5.027471
v 1.297113 -2.220204 -4.903120
v 1.480383 -2.220204 -4.903120
v 1.297113 -2.112297 -4.817067
v 1.480383 -2.112296 -4.817067
v 1.297113 -1.977738 -4.786355
v 1.480383 -1.977738 -4.786355
v 1.297113 -1.843180 -4.817066
v 1.480383 -1.843180 -4.817066
v 1.297113 -1.735272 -4.903120
v 1.480383 -1.735272 -4.903120
v 1.297113 -1.675388 -5.027471
v 1.480383 -1.675388 -5.027471
v 1.297113 -1.675388 -5.165489
v 1.480383 -1.675388 -5.165489
v 1.297113 -1.735272 -5.289840
v 1.480383 -1.735272 -5.289840
v 1.297113 -1.843180 -5.375894
v 1.480383 -1.843180 -5.375894
v 1.315088 -1.977738 -5.445763
v 1.462408 -1.977738 -5.445763
v 1.462408 -2.129286 -5.411173
v 1.315088 -2.129286 -5.411173
v 1.462408 -2.250818 -5.314254
v 1.315088 -2.250818 -5.314254
v 1.462408 -2.318264 -5.174202
v 1.315088 -2.318264 -5.174202
v 1.462408 -2.318264 -5.018757
v 1.315088 -2.318264 -5.018757
v 1.462408 -2.250818 -4.878706
v 1.315088 -2.250818 -4.878706
v 1.462408 -2.129286 -4.781787
v 1.315088 -2.129286 -4.781787
v 1.462408 -1.977738 -4.747197
v 1.315088 -1.977738 -4.747197
v 1.462408 -1.826190 -4.781787
v 1.315088 -1.826190 -4.781787
v 1.462408 -1.704658 -4.878706
v 1.315088 -1.704658 -4.878706
v 1.462408 -1.637212 -5.018757
v 1.315088 -1.637212 -5.018757
v 1.462408 -1.637212 -5.174203
v 1.315088 -1.637212 -5.174203
v 1.462408 -1.704658 -5.314254
v 1.315088 -1.704658 -5.314254
v 1.462408 -1.826190 -5.411173
v 1.315088 -1.826190 -5.411173
v 1.297113 -1.977738 -5.330140
v 1.297113 -2.079119 -5.307000
v 1.297113 -2.160421 -5.242164
v 1.297113 -2.205539 -5.148474
v 1.297113 -2.205539 -5.044486
v 1.297113 -2.160421 -4.950796
v 1.297113 -2.079119 -4.885960
v 1.297113 -1.977738 -4.862820
v 1.297113 -1.876357 -4.885960
v 1.297113 -1.795056 -4.950795
v 1.297113 -1.749937 -5.044486
v 1.297113 -1.749937 -5.148474
v 1.297113 -1.795056 -5.242165
v 1.297113 -1.876357 -5.307000
v 1.323945 -1.977738 -5.330140
v 1.323945 -2.079119 -5.307000
v 1.453552 -2.079119 -5.307000
v 1.453551 -1.977738 -5.330140
v 1.323945 -2.160421 -5.242164
v 1.453552 -2.160421 -5.242164
v 1.323945 -2.205539 -5.148474
v 1.453552 -2.205539 -5.148474
v 1.323945 -2.205539 -5.044486
v 1.453552 -2.205539 -5.044486
v 1.323945 -2.160421 -4.950796
v 1.453552 -2.160421 -4.950796
v 1.323945 -2.079119 -4.885960
v 1.453552 -2.079119 -4.885960
v 1.323945 -1.977738 -4.862820
v 1.453551 -1.977738 -4.862820
v 1.323945 -1.876357 -4.885960
v 1.453551 -1.876357 -4.885960
v 1.323945 -1.795056 -4.950795
v 1.453551 -1.795056 -4.950795
v 1.323945 -1.749937 -5.044486
v 1.453551 -1.749937 -5.044486
v 1.323945 -1.749937 -5.148474
v 1.453551 -1.749937 -5.148474
v 1.323945 -1.795056 -5.242165
v 1.453551 -1.795056 -5.242165
v 1.323945 -1.876357 -5.307000
v 1.453551 -1.876357 -5.307000
v 1.323945 -1.977738 -5.177190
v 1.323945 -2.012757 -5.169197
v 1.453551 -2.012757 -5.169197
v 1.453551 -1.977738 -5.177190
v 1.323945 -2.040840 -5.146802
v 1.453552 -2.040840 -5.146802
v 1.323945 -2.056425 -5.114439
v 1.453552 -2.056425 -5.114439
v 1.323945 -2.056425 -5.078520
v 1.453552 -2.056425 -5.078520
v 1.323945 -2.040840 -5.046158
v 1.453552 -2.040840 -5.046158
v 1.323945 -2.012757 -5.023763
v 1.453551 -2.012757 -5.023763
v 1.323945 -1.977738 -5.015769
v 1.453551 -1.977738 -5.015769
v 1.323945 -1.942719 -5.023763
v 1.453551 -1.942719 -5.023763
v 1.323945 -1.914636 -5.046158
v 1.453551 -1.914636 -5.046158
v 1.323945 -1.899051 -5.078520
v 1.453551 -1.899051 -5.078520
v 1.323945 -1.899051 -5.114439
v 1.453551 -1.899051 -5.114439
v 1.323945 -1.914636 -5.146802
v 1.453551 -1.914636 -5.146802
v 1.323945 -1.942719 -5.169197
v 1.453551 -1.942719 -5.169197
v 1.298808 -1.977738 -5.177190
v 1.298808 -2.012757 -5.169197
v 1.298808 -2.040840 -5.146802
v 1.298808 -2.056425 -5.114439
v 1.298808 -2.056425 -5.078520
v 1.298808 -2.040840 -5.046158
v 1.298808 -2.012757 -5.023763
v 1.298808 -1.977738 -5.015769
v 1.298808 -1.942719 -5.023763
v 1.298808 -1.914636 -5.046158
v 1.298808 -1.899051 -5.078520
v 1.298808 -1.899051 -5.114439
v 1.298808 -1.914636 -5.146802
v 1.298808 -1.942719 -5.169197
v 1.480383 -1.977738 -5.345643
v 1.475828 -1.977738 -5.330140
v 1.475828 -2.079119 -5.307000
v 1.480383 -2.085846 -5.320968
v 1.475828 -2.160421 -5.242164
v 1.480383 -2.172542 -5.251831
v 1.475828 -2.205539 -5.148474
v 1.480383 -2.220654 -5.151924
v 1.475828 -2.205539 -5.044486
v 1.480383 -2.220654 -5.041036
v 1.475828 -2.160421 -4.950796
v 1.480383 -2.172542 -4.941129
v 1.475828 -2.079119 -4.885960
v 1.480383 -2.085846 -4.871992
v 1.475828 -1.977738 -4.862820
v 1.480383 -1.977738 -4.847317
v 1.475828 -1.876357 -4.885960
v 1.480383 -1.869630 -4.871992
v 1.475828 -1.795056 -4.950795
v 1.480383 -1.782934 -4.941129
v 1.475828 -1.749937 -5.044486
v 1.480383 -1.734822 -5.041036
v 1.475828 -1.749937 -5.148474
v 1.480383 -1.734822 -5.151924
v 1.475828 -1.795056 -5.242165
v 1.480383 -1.782934 -5.251831
v 1.475828 -1.876357 -5.307000
v 1.480383 -1.869630 -5.320968
v 1.478689 -2.007277 -5.157818
v 1.467360 -2.012757 -5.169197
v 1.467360 -1.977738 -5.177190
v 1.478689 -1.977738 -5.164560
v 1.478689 -2.030966 -5.138927
v 1.467360 -2.040840 -5.146802
v 1.478689 -2.044112 -5.111629
v 1.467360 -2.056425 -5.114439
v 1.478689 -2.044112 -5.081330
v 1.467360 -2.056425 -5.078520
v 1.478689 -2.030966 -5.054032
v 1.467360 -2.040840 -5.046158
v 1.478689 -2.007277 -5.035141
v 1.467360 -2.012757 -5.023763
v 1.478689 -1.977738 -5.028399
v 1.467360 -1.977738 -5.015769
v 1.478689 -1.948199 -5.035141
v 1.467360 -1.942719 -5.023763
v 1.478689 -1.924510 -5.054032
v 1.467360 -1.914636 -5.046158
v 1.478689 -1.911364 -5.081330
v 1.467360 -1.899051 -5.078520
v 1.478689 -1.911364 -5.111629
v 1.467360 -1.899051 -5.114439
v 1.478689 -1.924510 -5.138927
v 1.467360 -1.914636 -5.146802
v 1.478689 -1.948199 -5.157818
v 1.467360 -1.942719 -5.169197
vn 0.9047 -0.0948 -0.4153
vn 0.9047 -0.2656 -0.3331
vn 0.9047 -0.3838 -0.1848
vn 0.9047 -0.4260 0.0000
vn 0.9047 -0.3838 0.1848
vn 0.9047 -0.2656 0.3330
vn 0.9047 -0.0948 0.4153
vn 0.9047 0.0948 0.4153
vn 0.9047 0.2656 0.3331
vn 0.9047 0.3838 0.1848
vn 0.9047 0.4260 0.0000
vn 0.9047 0.3838 -0.1848
vn -1.0000 0.0000 0.0000
vn 0.9047 0.2656 -0.3331
vn 0.9047 0.0948 -0.4153
vn 0.0000 0.6235 -0.7818
vn -0.9047 0.0948 -0.4153
vn 0.0000 0.2225 -0.9749
vn -0.9047 0.2656 -0.3331
vn -0.9047 0.3838 -0.1848
vn 0.0000 0.9010 -0.4339
vn -0.9047 0.4260 0.0000
vn 0.0000 1.0000 0.0000
vn -0.9047 0.3838 0.1848
vn 0.0000 0.9010 0.4339
vn -0.9047 0.2656 0.3331
vn 0.0000 0.6235 0.7818
vn -0.9047 0.0948 0.4153
vn 0.0000 0.2225 0.9749
vn -0.9047 -0.0948 0.4153
vn -0.0000 -0.2225 0.9749
vn -0.9047 -0.2656 0.3330
vn 0.0000 -0.6235 0.7818
vn -0.9047 -0.3838 0.1848
vn 0.0000 -0.9010 0.4339
vn -0.9047 -0.4260 0.0000
vn 0.0000 -1.0000 0.0000
vn -0.9047 -0.3838 -0.1848
vn 0.0000 -0.9010 -0.4339
vn -0.9047 -0.2656 -0.3331
vn 0.0000 -0.6235 -0.7818
vn -0.9047 -0.0948 -0.4153
vn 0.0000 -0.2225 -0.9749
vn 1.0000 0.0000 0.0000
vn 0.9575 0.0642 0.2813
vn 0.9575 0.1799 0.2256
vn 0.9575 0.2600 0.1252
vn 0.9575 0.2886 0.0000
vn 0.9575 0.2600 -0.1252
vn 0.9575 0.1799 -0.2256
vn 0.9575 0.0642 -0.2813
vn 0.9575 -0.0642 -0.2813
vn 0.9575 -0.1799 -0.2256
vn 0.9575 -0.2600 -0.1252
vn 0.9575 -0.2886 0.0000
vn 0.9575 -0.2600 0.1252
vn 0.9575 -0.1799 0.2256
vn 0.9575 -0.0642 0.2813
vn 0.7359 -0.1507 -0.6601
vn 0.7359 -0.4221 -0.5293
vn 0.7359 -0.6100 -0.2938
vn 0.7359 -0.6771 0.0000
vn 0.7359 -0.6100 0.2938
vn 0.7359 -0.4221 0.5294
vn 0.7359 -0.1507 0.6601
vn 0.7359 0.1507 0.6601
vn 0.7359 0.4221 0.5294
vn 0.7359 0.6100 0.2938
vn 0.7359 0.6771 0.0000
vn 0.7359 0.6100 -0.2938
vn 0.7359 0.4221 -0.5294
vn 0.7359 0.1507 -0.6601
usemtl Svart
s off
f 30//1 2//1 4//1 31//1
f 31//2 4//2 6//2 33//2
f 33//3 6//3 8//3 35//3
f 35//4 8//4 10//4 37//4
f 37//5 10//5 12//5 39//5
f 39//6 12//6 14//6 41//6
f 41//7 14//7 16//7 43//7
f 43//8 16//8 18//8 45//8
f 45//9 18//9 20//9 47//9
f 47//10 20//10 22//10 49//10
f 49//11 22//11 24//11 51//11
f 51//12 24//12 26//12 53//12
f 3//13 5//13 59//13 58//13
f 53//14 26//14 28//14 55//14
f 55//15 28//15 2//15 30//15
f 153//16 151//16 82//16 84//16
f 27//17 56//17 29//17 1//17
f 56//18 55//18 30//18 29//18
f 25//19 54//19 56//19 27//19
f 54//16 53//16 55//16 56//16
f 23//20 52//20 54//20 25//20
f 52//21 51//21 53//21 54//21
f 21//22 50//22 52//22 23//22
f 50//23 49//23 51//23 52//23
f 19//24 48//24 50//24 21//24
f 48//25 47//25 49//25 50//25
f 17//26 46//26 48//26 19//26
f 46//27 45//27 47//27 48//27
f 15//28 44//28 46//28 17//28
f 44//29 43//29 45//29 46//29
f 13//30 42//30 44//30 15//30
f 42//31 41//31 43//31 44//31
f 11//32 40//32 42//32 13//32
f 40//33 39//33 41//33 42//33
f 9//34 38//34 40//34 11//34
f 38//35 37//35 39//35 40//35
f 7//36 36//36 38//36 9//36
f 36//37 35//37 37//37 38//37
f 5//38 34//38 36//38 7//38
f 34//39 33//39 35//39 36//39
f 3//40 32//40 34//40 5//40
f 32//41 31//41 33//41 34//41
f 1//42 29//42 32//42 3//42
f 29//43 30//43 31//43 32//43
f 18//44 16//44 156//44 158//44
f 70//31 57//31 71//31 97//31
f 21//13 23//13 68//13 67//13
f 145//27 143//27 73//27 76//27
f 163//37 161//37 92//37 94//37
f 13//13 15//13 64//13 63//13
f 155//18 153//18 84//18 86//18
f 5//13 7//13 60//13 59//13
f 23//13 25//13 69//13 68//13
f 147//25 145//25 76//25 78//25
f 165//35 163//35 94//35 96//35
f 15//13 17//13 65//13 64//13
f 157//43 155//43 86//43 88//43
f 7//13 9//13 61//13 60//13
f 25//13 27//13 70//13 69//13
f 149//23 147//23 78//23 80//23
f 167//33 165//33 96//33 98//33
f 17//13 19//13 66//13 65//13
f 159//41 157//41 88//41 90//41
f 9//13 11//13 62//13 61//13
f 27//13 1//13 57//13 70//13
f 1//13 3//13 58//13 57//13
f 151//21 149//21 80//21 82//21
f 143//29 142//29 74//29 73//29
f 142//31 167//31 98//31 74//31
f 19//13 21//13 67//13 66//13
f 161//39 159//39 90//39 92//39
f 11//13 13//13 63//13 62//13
f 57//29 58//29 72//29 71//29
f 2//44 28//44 168//44 141//44
f 64//43 65//43 87//43 85//43
f 6//44 4//44 144//44 146//44
f 20//44 18//44 158//44 160//44
f 58//27 59//27 75//27 72//27
f 65//41 66//41 89//41 87//41
f 8//44 6//44 146//44 148//44
f 22//44 20//44 160//44 162//44
f 59//25 60//25 77//25 75//25
f 66//39 67//39 91//39 89//39
f 10//44 8//44 148//44 150//44
f 24//44 22//44 162//44 164//44
f 60//23 61//23 79//23 77//23
f 67//37 68//37 93//37 91//37
f 12//44 10//44 150//44 152//44
f 26//44 24//44 164//44 166//44
f 61//21 62//21 81//21 79//21
f 68//35 69//35 95//35 93//35
f 14//44 12//44 152//44 154//44
f 28//44 26//44 166//44 168//44
f 62//16 63//16 83//16 81//16
f 69//33 70//33 97//33 95//33
f 16//44 14//44 154//44 156//44
f 63//18 64//18 85//18 83//18
f 144//45 141//45 142//45 143//45
f 146//46 144//46 143//46 145//46
f 148//47 146//47 145//47 147//47
f 150//48 148//48 147//48 149//48
f 152//49 150//49 149//49 151//49
f 154//50 152//50 151//50 153//50
f 156//51 154//51 153//51 155//51
f 158//52 156//52 155//52 157//52
f 160//53 158//53 157//53 159//53
f 162//54 160//54 159//54 161//54
f 164//55 162//55 161//55 163//55
f 166//56 164//56 163//56 165//56
f 168//57 166//57 165//57 167//57
f 141//58 168//58 167//58 142//58
f 4//44 2//44 141//44 144//44
usemtl Grått
f 74//44 98//44 126//44 102//44
f 71//13 72//13 100//13 99//13
f 114//31 112//31 182//31 184//31
f 85//13 87//13 115//13 113//13
f 73//44 74//44 102//44 101//44
f 88//44 86//44 114//44 116//44
f 72//13 75//13 103//13 100//13
f 87//13 89//13 117//13 115//13
f 76//44 73//44 101//44 104//44
f 90//44 88//44 116//44 118//44
f 75//13 77//13 105//13 103//13
f 89//13 91//13 119//13 117//13
f 78//44 76//44 104//44 106//44
f 92//44 90//44 118//44 120//44
f 77//13 79//13 107//13 105//13
f 91//13 93//13 121//13 119//13
f 80//44 78//44 106//44 108//44
f 94//44 92//44 120//44 122//44
f 79//13 81//13 109//13 107//13
f 93//13 95//13 123//13 121//13
f 82//44 80//44 108//44 110//44
f 96//44 94//44 122//44 124//44
f 81//13 83//13 111//13 109//13
f 95//13 97//13 125//13 123//13
f 84//44 82//44 110//44 112//44
f 98//44 96//44 124//44 126//44
f 83//13 85//13 113//13 111//13
f 97//13 71//13 99//13 125//13
f 86//44 84//44 112//44 114//44
f 104//41 101//41 170//41 174//41
f 127//13 128//13 129//13 130//13 131//13 132//13 133//13 134//13 135//13 136//13 137//13 138//13 139//13 140//13
f 111//31 113//31 134//31 133//31
f 125//18 99//18 127//18 140//18
f 116//29 114//29 184//29 186//29
f 99//43 100//43 128//43 127//43
f 106//39 104//39 174//39 176//39
f 113//29 115//29 135//29 134//29
f 102//18 126//18 196//18 171//18
f 118//27 116//27 186//27 188//27
f 100//41 103//41 129//41 128//41
f 115//27 117//27 136//27 135//27
f 101//43 102//43 171//43 170//43
f 120//25 118//25 188//25 190//25
f 103//39 105//39 130//39 129//39
f 117//25 119//25 137//25 136//25
f 108//37 106//37 176//37 178//37
f 122//23 120//23 190//23 192//23
f 105//37 107//37 131//37 130//37
f 119//23 121//23 138//23 137//23
f 110//35 108//35 178//35 180//35
f 124//21 122//21 192//21 194//21
f 107//35 109//35 132//35 131//35
f 121//21 123//21 139//21 138//21
f 112//33 110//33 180//33 182//33
f 126//16 124//16 194//16 196//16
f 109//33 111//33 133//33 132//33
f 123//16 125//16 140//16 139//16
f 170//59 171//59 172//59 169//59
f 174//60 170//60 169//60 173//60
f 176//61 174//61 173//61 175//61
f 178//62 176//62 175//62 177//62
f 180//63 178//63 177//63 179//63
f 182//64 180//64 179//64 181//64
f 184//65 182//65 181//65 183//65
f 186//66 184//66 183//66 185//66
f 188//67 186//67 185//67 187//67
f 190//68 188//68 187//68 189//68
f 192//69 190//69 189//69 191//69
f 194//70 192//70 191//70 193//70
f 196//71 194//71 193//71 195//71
f 171//72 196//72 195//72 172//72
f 169//44 172//44 195//44 193//44 191//44 189//44 187//44 185//44 183//44 181//44 179//44 177//44 175//44 173//44
