# Blender v2.78 (sub 0) OBJ File: 'Street-Lamp.blend'
# www.blender.org
mtllib Street-Lamp_1.mtl
o Circle.005
v -2.000000 0.000000 0.053117
v -1.962441 0.000000 0.037559
v -1.946883 0.000000 0.000000
v -1.962441 0.000000 -0.037559
v -2.000000 0.000000 -0.053117
v -2.037559 0.000000 -0.037559
v -2.053117 0.000000 -0.000000
v -2.037559 0.000000 0.037559
v -2.037322 7.005346 0.365683
v -2.036572 6.499648 0.104117
v -2.053184 6.522801 0.075215
v -2.038286 6.546463 0.044673
v -2.000000 6.556305 0.031727
v -1.961714 6.546463 0.044673
v -1.946816 6.522801 0.075215
v -1.963427 6.499648 0.104117
v -2.000000 6.490396 0.115380
v -2.000000 5.902021 0.053239
v -2.037188 7.371624 0.809137
v -2.000000 6.992847 0.374614
v -1.962678 7.005346 0.365683
v -1.946875 7.035619 0.343924
v -1.962072 7.066266 0.321640
v -2.000000 7.079119 0.312207
v -2.037928 7.066266 0.321640
v -1.962595 5.901312 0.037798
v -2.053125 7.035619 0.343924
v -1.946875 5.899578 0.000577
v -1.962040 5.897981 -0.037263
v -2.000000 5.897390 -0.053241
v -2.037960 5.897981 -0.037263
v -2.053125 5.899578 0.000577
v -2.037405 5.901312 0.037798
v -2.000000 7.356687 0.812134
v -1.962812 7.371624 0.809137
v -1.946871 7.408185 0.801603
v -1.962089 7.445375 0.793659
v -2.000000 7.460938 0.790259
v -2.037911 7.445375 0.793659
v -2.053129 7.408185 0.801603
v -2.041185 7.542617 1.396530
v -2.000000 7.525439 1.397374
v -1.958815 7.542617 1.396530
v -1.942019 7.583797 1.394490
v -1.959165 7.624626 1.392434
v -2.000000 7.641449 1.391574
v -2.040835 7.624626 1.392434
v -2.057981 7.583797 1.394490
v -1.922453 7.511600 1.365984
v -1.922453 7.649976 1.351087
v -1.872815 7.546715 1.872371
v -1.872815 7.723448 1.853345
v -2.077547 7.511600 1.365984
v -2.077547 7.649976 1.351087
v -2.127186 7.546715 1.872371
v -2.127186 7.723448 1.853345
v -1.872814 7.685427 1.500181
v -1.872814 7.508695 1.519207
v -2.127186 7.685427 1.500181
v -2.127186 7.508695 1.519207
v -1.872814 7.693931 1.579172
v -2.127186 7.517199 1.598198
v -1.872814 7.517199 1.598198
v -2.127186 7.693931 1.579172
v -2.117186 7.518270 1.608141
v -2.117186 7.545645 1.862429
v -1.882815 7.545645 1.862429
v -1.882814 7.518270 1.608141
vn -0.9207 0.3035 -0.2454
vn 0.3598 -0.7183 0.5954
vn -0.3535 -0.4295 0.8310
vn -0.3709 0.4380 -0.8189
vn 0.9066 -0.1954 0.3741
vn 0.3709 0.4380 -0.8189
vn 0.3481 -0.1006 0.9321
vn 0.9200 0.0476 -0.3891
vn -0.9200 0.0476 -0.3891
vn -0.3481 -0.1006 0.9321
vn -0.3647 0.1178 -0.9236
vn -0.9034 -0.0486 0.4260
vn 0.3821 -0.0000 0.9241
vn 0.9226 -0.0000 0.3859
vn 0.9261 -0.0000 -0.3773
vn 0.3853 0.0000 -0.9228
vn -0.3853 0.0000 -0.9228
vn -0.9261 -0.0000 -0.3773
vn -0.9226 -0.0000 0.3859
vn -0.3821 -0.0000 0.9241
vn 0.3647 0.1178 -0.9236
vn 0.9034 -0.0486 0.4260
vn -0.9066 -0.1954 0.3741
vn 0.3535 -0.4295 0.8310
vn 0.9228 0.1803 -0.3404
vn -0.9228 0.1803 -0.3404
vn 0.9113 -0.3184 0.2612
vn -0.9113 -0.3184 0.2612
vn -0.3700 0.7251 -0.5808
vn -0.3598 -0.7184 0.5954
vn 0.9207 0.3035 -0.2454
vn 0.3700 0.7251 -0.5808
vn -0.9212 -0.3752 0.1033
vn 0.9212 -0.3752 0.1033
vn -0.9227 0.3679 -0.1156
vn 0.3772 -0.8899 0.2565
vn 0.3789 0.8862 -0.2666
vn 0.9227 0.3679 -0.1156
vn -0.3772 -0.8899 0.2565
vn -0.3789 0.8862 -0.2666
vn 0.0000 0.0499 0.9988
vn -0.9506 -0.0332 -0.3086
vn 0.0000 0.1070 0.9943
vn -1.0000 0.0000 0.0000
vn 1.0000 0.0000 0.0000
vn 0.0000 0.9729 -0.2313
vn 0.9506 -0.0332 -0.3086
vn 0.0000 0.9943 -0.1070
vn 0.0000 -0.9998 -0.0190
vn 0.0000 -0.1070 -0.9943
vn 0.0000 -0.9943 0.1070
vn 0.0000 -0.9943 0.1071
usemtl Silver
s off
f 25//1 27//1 40//1 39//1
f 20//2 21//2 35//2 34//2
f 10//3 17//3 20//3 9//3
f 13//4 12//4 25//4 24//4
f 16//5 15//5 22//5 21//5
f 14//6 13//6 24//6 23//6
f 18//7 26//7 16//7 17//7
f 28//8 29//8 14//8 15//8
f 31//9 32//9 11//9 12//9
f 33//10 18//10 17//10 10//10
f 30//11 31//11 12//11 13//11
f 32//12 33//12 10//12 11//12
f 2//13 26//13 18//13 1//13
f 3//14 28//14 26//14 2//14
f 4//15 29//15 28//15 3//15
f 5//16 30//16 29//16 4//16
f 6//17 31//17 30//17 5//17
f 7//18 32//18 31//18 6//18
f 8//19 33//19 32//19 7//19
f 1//20 18//20 33//20 8//20
f 29//21 30//21 13//21 14//21
f 26//22 28//22 15//22 16//22
f 11//23 10//23 9//23 27//23
f 17//24 16//24 21//24 20//24
f 15//25 14//25 23//25 22//25
f 12//26 11//26 27//26 25//26
f 21//27 22//27 36//27 35//27
f 27//28 9//28 19//28 40//28
f 24//29 25//29 39//29 38//29
f 9//30 20//30 34//30 19//30
f 22//31 23//31 37//31 36//31
f 23//32 24//32 38//32 37//32
f 40//33 19//33 41//33 48//33
f 35//34 36//34 44//34 43//34
f 39//35 40//35 48//35 47//35
f 34//36 35//36 43//36 42//36
f 37//37 38//37 46//37 45//37
f 36//38 37//38 45//38 44//38
f 19//39 34//39 42//39 41//39
f 38//40 39//40 47//40 46//40
f 47//41 48//41 41//41 42//41 43//41 44//41 45//41 46//41
f 59//42 54//42 53//42 60//42
f 52//43 56//43 55//43 51//43
f 56//44 64//44 62//44 55//44
f 61//45 52//45 51//45 63//45
f 54//46 59//46 57//46 50//46
f 64//44 59//44 60//44 62//44
f 50//47 57//47 58//47 49//47
f 64//48 56//48 52//48 61//48
f 49//49 58//49 60//49 53//49
f 59//48 64//48 61//48 57//48
f 57//45 61//45 63//45 58//45
f 54//50 50//50 49//50 53//50
f 58//51 63//51 62//51 60//51
f 65//51 66//51 55//51 62//51
f 67//51 68//51 63//51 51//51
f 66//52 67//52 51//52 55//52
f 68//52 65//52 62//52 63//52
usemtl Light
f 65//51 68//51 67//51 66//51
