# Blender v2.78 (sub 0) OBJ File: 'wet_floor.blend'
# www.blender.org
mtllib wet_floor.mtl
o Cylinder_Cylinder.001
v -0.899204 1.782572 -0.076473
v 0.899204 1.782572 -0.076473
v -0.899204 1.737622 -0.061868
v 0.899204 1.737622 -0.061868
v -0.899204 1.709841 -0.023632
v 0.899204 1.709842 -0.023632
v -0.899204 1.709841 0.023632
v 0.899204 1.709842 0.023632
v -0.899204 1.737622 0.061868
v 0.899204 1.737622 0.061868
v -0.899204 1.782572 0.076473
v 0.899204 1.782572 0.076473
v -0.899204 1.827522 0.061868
v 0.899204 1.827522 0.061868
v -0.899204 1.855302 0.023632
v 0.899204 1.855303 0.023632
v -0.899204 1.855302 -0.023632
v 0.899204 1.855303 -0.023632
v -0.899204 1.827522 -0.061868
v 0.899204 1.827522 -0.061868
vn 0.0000 -0.3090 -0.9511
vn 0.0000 -0.8090 -0.5878
vn 0.0000 -1.0000 0.0000
vn 0.0000 -0.8090 0.5878
vn 0.0000 -0.3090 0.9511
vn -0.0000 0.3090 0.9511
vn -0.0000 0.8090 0.5878
vn -0.0000 1.0000 0.0000
vn 1.0000 0.0000 0.0000
vn -0.0000 0.3090 -0.9511
vn -0.0000 0.8090 -0.5878
vn -1.0000 -0.0000 0.0000
usemtl Material
s off
f 1//1 2//1 4//1 3//1
f 3//2 4//2 6//2 5//2
f 5//3 6//3 8//3 7//3
f 7//4 8//4 10//4 9//4
f 9//5 10//5 12//5 11//5
f 11//6 12//6 14//6 13//6
f 13//7 14//7 16//7 15//7
f 15//8 16//8 18//8 17//8
f 4//9 2//9 20//9 18//9 16//9 14//9 12//9 10//9 8//9 6//9
f 19//10 20//10 2//10 1//10
f 17//11 18//11 20//11 19//11
f 1//12 3//12 5//12 7//12 9//12 11//12 13//12 15//12 17//12 19//12
o Cube.001_Cube.002
v 0.638137 -1.681415 -1.721503
v 0.623103 -1.728403 -1.728112
v 0.623103 -1.778127 -1.621296
v -0.638136 -1.681415 -1.721504
v -0.623102 -1.728403 -1.728112
v -0.623102 -1.778127 -1.621296
v 0.450432 -1.466538 -1.606210
v 0.462276 -1.414913 -1.597442
v 0.450432 -1.516263 -1.499393
v -0.462275 -1.414913 -1.597442
v -0.450432 -1.466538 -1.606210
v -0.450432 -1.516263 -1.499393
v 1.196407 -1.653339 -1.708434
v 1.184023 -1.681415 -1.721503
v 1.226604 -1.702109 -1.715872
v 1.213987 -1.728403 -1.728112
v 1.184651 -1.742336 -1.590636
v 1.196407 -1.714745 -1.576525
v 1.213987 -1.778127 -1.621296
v 1.226604 -1.751833 -1.609056
v -1.184023 -1.681415 -1.721504
v -1.196406 -1.653339 -1.708434
v -1.213987 -1.728403 -1.728112
v -1.226603 -1.702109 -1.715872
v -1.184650 -1.742336 -1.590636
v -1.196395 -1.714625 -1.576470
v -1.226603 -1.751833 -1.609056
v -1.213987 -1.778127 -1.621296
v 0.643933 -1.714745 -1.576525
v 0.636889 -1.742336 -1.590636
v -0.643774 -1.714504 -1.576413
v -0.636888 -1.742336 -1.590636
v 0.466236 -1.445259 -1.451075
v 0.461293 -1.475834 -1.466575
v -0.461292 -1.475834 -1.466575
v -0.466236 -1.445259 -1.451075
v 0.858460 1.745586 -0.126172
v 0.878916 1.715142 -0.140344
v 0.872120 1.715592 -0.140134
v 0.874824 1.778128 -0.095758
v 0.895333 1.747700 -0.109922
v 0.895333 1.697975 -0.003106
v 0.874824 1.728403 0.011059
v 0.878916 1.653736 -0.008435
v 0.858460 1.684180 0.005737
v 0.872119 1.654187 -0.008225
v -0.895334 1.747700 -0.109923
v -0.874825 1.778128 -0.095758
v -0.878917 1.715142 -0.140344
v -0.858460 1.745586 -0.126172
v -0.872121 1.715592 -0.140134
v -0.874825 1.728403 0.011058
v -0.895334 1.697975 -0.003106
v -0.858460 1.684180 0.005737
v -0.878917 1.653736 -0.008435
v -0.872120 1.654187 -0.008226
vt 1.4076 -0.3751
vt 2.4076 -0.3751
vt 2.4076 0.6249
vt 1.4076 0.6249
vt 1.4076 -0.3751
vt 2.4076 -0.3751
vt 2.4076 0.6249
vt 1.4076 0.6249
vt 0.8664 1.1857
vt 0.8636 1.1858
vt 0.6927 -0.0697
vt 0.7661 -0.1745
vt 0.9936 -0.1745
vt 0.9988 -0.1663
vt 1.4076 -0.3751
vt 2.4076 -0.3751
vt 2.4076 0.6249
vt 1.4076 0.6249
vt 1.4076 -0.3751
vt 2.4076 -0.3751
vt 2.4076 0.6249
vt 1.4076 0.6249
vt 0.0012 -0.1663
vt 0.0064 -0.1745
vt 0.2339 -0.1745
vt 0.3073 -0.0697
vt 0.1364 1.1858
vt 0.1336 1.1857
vt 1.4076 -0.3751
vt 2.4076 -0.3751
vt 1.4076 0.6249
vt 1.4076 -0.3751
vt 2.4076 -0.3751
vt 1.4076 0.6249
vt 1.4076 -0.3751
vt 2.4076 -0.3751
vt 2.4076 0.6249
vt 1.4076 0.6249
vt 1.4076 -0.3751
vt 2.4076 -0.3751
vt 2.4076 0.6249
vt 1.4076 0.6249
vt 1.4076 -0.3751
vt 2.4076 -0.3751
vt 1.4076 -0.3751
vt 2.4076 -0.3751
vt 1.4076 0.6249
vt 1.4076 -0.3751
vt 2.4076 0.6249
vt 1.4076 0.6249
vt 1.4076 -0.3751
vt 2.4076 -0.3751
vt 2.4076 0.6249
vt 1.4076 0.6249
vt 1.9076 0.6249
vt 2.3406 0.3749
vt 2.3406 -0.1251
vt 1.9076 -0.3751
vt 1.4746 -0.1251
vt 1.4746 0.3749
vt 1.4076 -0.3751
vt 2.4076 -0.3751
vt 2.4076 0.6249
vt 1.4076 0.6249
vt 0.8579 1.1946
vt 0.1421 1.1946
vt 1.4076 -0.3751
vt 2.4076 -0.3751
vt 1.9076 0.6249
vt 2.3831 0.2794
vt 2.2015 -0.2797
vt 1.6137 -0.2797
vt 1.4320 0.2794
vt 2.4076 -0.3751
vt 2.4076 0.6249
vt 1.4076 0.6249
vt 2.4076 -0.3751
vt 2.4076 0.6249
vt 1.4076 0.6249
vt 1.4076 -0.3751
vt 2.4076 -0.3751
vt 1.4076 0.6249
vt 1.4076 -0.3751
vt 2.4076 -0.3751
vt 2.4076 0.6249
vt 1.4076 0.6249
vt 1.4076 -0.3751
vt 2.4076 -0.3751
vt 2.4076 0.6249
vt 1.4076 -0.3751
vt 2.4076 -0.3751
vt 2.4076 0.6249
vt 1.9076 0.6249
vt 2.3831 0.2794
vt 2.2015 -0.2797
vt 1.6137 -0.2797
vt 1.4320 0.2794
vt 1.4076 -0.3751
vt 2.4076 -0.3751
vt 2.4076 0.6249
vt 1.4076 0.6249
vt 1.4076 -0.3751
vt 2.4076 -0.3751
vt 1.4076 0.6249
vt 2.4076 -0.3751
vt 2.4076 0.6249
vt 1.4076 0.6249
vt 1.4076 0.6249
vt 1.4076 -0.3751
vt 2.4076 -0.3751
vt 2.4076 0.6249
vt 1.4076 0.6249
vt 1.4076 -0.3751
vt 2.4076 -0.3751
vt 2.4076 0.6249
vt 1.4076 0.6249
vt 1.4076 -0.3751
vt 2.4076 -0.3751
vt 2.4076 0.6249
vt 1.4076 0.6249
vt 1.4076 -0.3751
vt 2.4076 -0.3751
vt 2.4076 0.6249
vt 1.4076 0.6249
vt 1.4076 -0.3751
vt 2.4076 -0.3751
vt 2.4076 0.6249
vt 1.4076 0.6249
vt 1.4076 -0.3751
vt 2.4076 -0.3751
vt 2.4076 0.6249
vt 1.4076 0.6249
vt 1.4076 -0.3751
vt 2.4076 -0.3751
vt 2.4076 0.6249
vt 1.4076 0.6249
vt 1.4076 -0.3751
vt 2.4076 0.6249
vt 1.4076 -0.3751
vt 2.4076 -0.3751
vt 2.4076 0.6249
vt 2.4076 -0.3751
vt 2.4076 0.6249
vt 2.4076 -0.3751
vt 2.4076 0.6249
vt 1.4076 -0.3751
vt 2.4076 -0.3751
vt 2.4076 0.6249
vt 2.4076 0.6249
vt 1.4076 0.6249
vt 2.4076 0.6249
vt 1.4076 0.6249
vt 2.4076 0.6249
vt 1.4076 -0.3751
vt 2.4076 -0.3751
vt 2.4076 0.6249
vt 1.4076 0.6249
vt 1.4076 -0.3751
vt 2.4076 -0.3751
vt 2.4076 0.6249
vt 1.4076 0.6249
vt 1.4076 -0.3751
vn -0.5136 0.4018 -0.7582
vn -0.2913 -0.5548 0.7793
vn 0.0000 0.4220 -0.9066
vn 0.0000 -0.9066 -0.4220
vn 0.5136 -0.3215 0.7956
vn 0.8583 -0.4652 -0.2165
vn 0.9962 0.0786 0.0366
vn 0.0000 -0.6506 0.7595
vn -0.0000 -0.1195 0.9928
vn -0.8583 -0.4652 -0.2165
vn -0.9962 0.0786 0.0366
vn -0.0000 0.9066 0.4220
vn -0.0000 -0.4220 0.9066
vn 0.0000 0.1393 -0.9903
vn -0.5136 -0.3215 0.7956
vn 0.0000 0.6828 -0.7306
vn 0.3069 0.2277 -0.9241
vn -0.0000 -0.6302 0.7764
vn 0.2913 -0.5548 0.7793
vn -0.3069 0.2277 -0.9241
vn 0.0000 0.1674 -0.9859
vn 0.2680 0.3026 -0.9147
vn 0.2450 -0.5131 0.8226
vn -0.2451 -0.5129 0.8227
vn -0.2680 0.3026 -0.9147
vn 0.0000 -0.4551 0.8904
vn 0.0000 -0.4553 0.8903
vn 0.0450 -0.4458 0.8940
vn -0.0450 -0.4458 0.8940
vn -0.0000 -0.4522 0.8919
vn 0.9170 -0.3616 -0.1683
vn -0.9170 -0.3616 -0.1683
vn 0.3060 0.5632 -0.7676
vn 0.3060 -0.2248 0.9251
vn -0.3060 -0.2248 0.9251
vn -0.3060 0.5632 -0.7676
vn 0.8533 0.4727 0.2201
vn -0.8533 0.4727 0.2201
vn 0.5136 0.4018 -0.7582
usemtl Material.001
s off
f 69/1/13 42/2/13 44/3/13 67/4/13
f 50/5/14 54/6/14 29/7/14 23/8/14
f 69/9/15 71/10/15 30/11/15 24/12/15 41/13/15 42/14/15
f 29/15/16 32/16/16 31/17/16 27/18/16
f 64/19/17 38/20/17 40/21/17 62/22/17
f 33/23/15 34/24/15 21/25/15 28/26/15 59/27/15 58/28/15
f 26/29/18 25/30/18 31/17/18 32/31/18
f 61/32/19 62/33/19 40/21/19 35/34/19
f 52/35/20 45/36/20 48/37/20 26/38/20
f 63/39/21 72/40/21 74/41/21 65/42/21
f 22/43/22 23/44/22 29/7/22 27/18/22
f 73/45/23 67/46/23 44/3/23 47/47/23
f 68/48/24 72/40/24 63/49/24 60/50/24
f 37/51/20 50/52/20 23/53/20 39/54/20
f 74/55/25 76/56/25 56/57/25 53/58/25 66/59/25 65/60/25
f 41/61/26 24/62/26 25/63/26 43/64/26
f 71/10/15 70/65/15 57/66/15 59/27/15 28/26/15 30/11/15
f 48/67/16 43/68/16 25/63/16 26/38/16
f 46/69/25 51/70/25 56/71/25 76/72/25 75/73/25
f 73/45/27 47/74/27 46/75/27 75/76/27
f 68/48/28 60/77/28 57/78/28 70/79/28
f 24/80/29 30/81/29 31/17/29 25/82/29
f 54/83/30 55/84/30 32/85/30 29/86/30
f 55/87/31 52/88/31 26/89/31 32/31/31
f 28/90/32 21/91/32 22/92/32 27/18/32
f 64/93/25 66/94/25 53/95/25 49/96/25 38/97/25
f 27/98/33 31/99/33 30/100/33 28/101/33
f 36/102/16 39/103/16 23/53/16 22/104/16
f 36/102/34 34/105/34 33/106/34 35/34/34
f 37/51/35 39/103/35 40/21/35 38/107/35
f 48/67/36 45/36/36 46/75/36 47/47/36
f 41/61/37 43/68/37 44/3/37 42/108/37
f 51/109/38 46/110/38 45/111/38 52/112/38
f 38/113/39 49/114/39 50/115/39 37/116/39
f 56/117/40 51/118/40 52/119/40 55/120/40
f 49/121/41 53/122/41 54/123/41 50/124/41
f 53/125/42 56/126/42 55/127/42 54/128/42
f 39/129/43 36/130/43 35/131/43 40/132/43
f 43/133/44 48/134/44 47/135/44 44/136/44
f 21/137/26 34/105/26 36/138/26 22/104/26
f 57/139/15 58/140/15 59/141/15
f 64/19/25 65/142/25 66/143/25
f 69/1/15 70/144/15 71/145/15
f 74/146/25 75/147/25 76/148/25
f 57/139/45 60/77/45 61/149/45 58/150/45
f 63/39/46 65/142/46 64/151/46 62/22/46
f 73/45/47 75/147/47 74/41/47 72/152/47
f 68/48/48 70/144/48 69/153/48 67/4/48
f 60/154/49 63/155/49 62/156/49 61/157/49
f 67/158/50 73/159/50 72/160/50 68/161/50
f 33/162/51 58/140/51 61/149/51 35/34/51
o Cube_Cube.001
v -0.638136 -1.681415 1.715248
v -0.623103 -1.728403 1.721856
v -0.623103 -1.778127 1.615040
v 0.638136 -1.681415 1.715248
v 0.623103 -1.728403 1.721856
v 0.623103 -1.778127 1.615040
v -0.450432 -1.466538 1.599954
v -0.462275 -1.414913 1.591186
v -0.450432 -1.516263 1.493137
v 0.462275 -1.414913 1.591186
v 0.450432 -1.466538 1.599954
v 0.450432 -1.516263 1.493137
v -1.196407 -1.653339 1.702178
v -1.184023 -1.681415 1.715248
v -1.226604 -1.702109 1.709616
v -1.213987 -1.728403 1.721856
v -1.184650 -1.742336 1.584380
v -1.196407 -1.714745 1.570269
v -1.213987 -1.778127 1.615040
v -1.226604 -1.751833 1.602800
v 1.184023 -1.681415 1.715248
v 1.196407 -1.653339 1.702178
v 1.213987 -1.728403 1.721856
v 1.226604 -1.702109 1.709616
v 1.184650 -1.742336 1.584380
v 1.196395 -1.714625 1.570214
v 1.226604 -1.751833 1.602800
v 1.213987 -1.778127 1.615040
v -0.643933 -1.714745 1.570269
v -0.636889 -1.742336 1.584380
v 0.643774 -1.714504 1.570157
v 0.636889 -1.742336 1.584380
v -0.466236 -1.445259 1.444819
v -0.461292 -1.475834 1.460319
v 0.461292 -1.475834 1.460319
v 0.466236 -1.445259 1.444819
v -0.858460 1.745586 0.119916
v -0.878917 1.715142 0.134088
v -0.872120 1.715592 0.133878
v -0.874825 1.778128 0.089502
v -0.895334 1.747700 0.103666
v -0.895334 1.697975 -0.003150
v -0.874825 1.728403 -0.017314
v -0.878917 1.653736 0.002179
v -0.858460 1.684180 -0.011993
v -0.872119 1.654187 0.001969
v 0.895334 1.747700 0.103666
v 0.874825 1.778128 0.089502
v 0.878917 1.715142 0.134088
v 0.858460 1.745586 0.119916
v 0.872120 1.715592 0.133878
v 0.874825 1.728403 -0.017314
v 0.895334 1.697975 -0.003150
v 0.858460 1.684180 -0.011993
v 0.878917 1.653736 0.002179
v 0.872119 1.654187 0.001969
vt 0.8562 1.1668
vt 0.8534 1.1669
vt 0.6873 -0.0535
vt 0.7586 -0.1554
vt 0.9798 -0.1554
vt 0.9849 -0.1474
vt 0.0151 -0.1474
vt 0.0202 -0.1554
vt 0.2414 -0.1554
vt 0.3127 -0.0535
vt 0.1466 1.1669
vt 0.1438 1.1668
vt 0.8479 1.1754
vt 0.1521 1.1754
vt 1.4076 -0.3751
vt 2.4076 -0.3751
vt 2.4076 0.6249
vt 1.4076 0.6249
vt 1.4076 -0.3751
vt 2.4076 -0.3751
vt 2.4076 0.6249
vt 1.4076 0.6249
vt 1.4076 -0.3751
vt 2.4076 -0.3751
vt 2.4076 0.6249
vt 1.4076 0.6249
vt 1.4076 -0.3751
vt 2.4076 -0.3751
vt 2.4076 0.6249
vt 1.4076 0.6249
vt 1.4076 -0.3751
vt 2.4076 -0.3751
vt 1.4076 0.6249
vt 1.4076 -0.3751
vt 2.4076 -0.3751
vt 1.4076 0.6249
vt 1.4076 -0.3751
vt 2.4076 -0.3751
vt 2.4076 0.6249
vt 1.4076 0.6249
vt 1.4076 -0.3751
vt 2.4076 -0.3751
vt 2.4076 0.6249
vt 1.4076 0.6249
vt 1.4076 -0.3751
vt 2.4076 -0.3751
vt 1.4076 -0.3751
vt 2.4076 -0.3751
vt 1.4076 0.6249
vt 1.4076 -0.3751
vt 2.4076 0.6249
vt 1.4076 0.6249
vt 1.4076 -0.3751
vt 2.4076 -0.3751
vt 2.4076 0.6249
vt 1.4076 0.6249
vt 1.9076 0.6249
vt 2.3406 0.3749
vt 2.3406 -0.1251
vt 1.9076 -0.3751
vt 1.4746 -0.1251
vt 1.4746 0.3749
vt 1.4076 -0.3751
vt 2.4076 -0.3751
vt 2.4076 0.6249
vt 1.4076 0.6249
vt 1.4076 -0.3751
vt 2.4076 -0.3751
vt 1.9076 0.6249
vt 2.3831 0.2794
vt 2.2015 -0.2797
vt 1.6137 -0.2797
vt 1.4320 0.2794
vt 2.4076 -0.3751
vt 2.4076 0.6249
vt 1.4076 0.6249
vt 2.4076 -0.3751
vt 2.4076 0.6249
vt 1.4076 0.6249
vt 1.4076 -0.3751
vt 2.4076 -0.3751
vt 1.4076 0.6249
vt 1.4076 -0.3751
vt 2.4076 -0.3751
vt 2.4076 0.6249
vt 1.4076 0.6249
vt 1.4076 -0.3751
vt 2.4076 -0.3751
vt 2.4076 0.6249
vt 1.4076 -0.3751
vt 2.4076 -0.3751
vt 2.4076 0.6249
vt 1.9076 0.6249
vt 2.3831 0.2794
vt 2.2015 -0.2797
vt 1.6137 -0.2797
vt 1.4320 0.2794
vt 1.4076 -0.3751
vt 2.4076 -0.3751
vt 2.4076 0.6249
vt 1.4076 0.6249
vt 1.4076 -0.3751
vt 2.4076 -0.3751
vt 1.4076 0.6249
vt 2.4076 -0.3751
vt 2.4076 0.6249
vt 1.4076 0.6249
vt 1.4076 0.6249
vt 1.4076 -0.3751
vt 2.4076 -0.3751
vt 2.4076 0.6249
vt 1.4076 0.6249
vt 1.4076 -0.3751
vt 2.4076 -0.3751
vt 2.4076 0.6249
vt 1.4076 0.6249
vt 1.4076 -0.3751
vt 2.4076 -0.3751
vt 2.4076 0.6249
vt 1.4076 0.6249
vt 1.4076 -0.3751
vt 2.4076 -0.3751
vt 2.4076 0.6249
vt 1.4076 0.6249
vt 1.4076 -0.3751
vt 2.4076 -0.3751
vt 2.4076 0.6249
vt 1.4076 0.6249
vt 1.4076 -0.3751
vt 2.4076 -0.3751
vt 2.4076 0.6249
vt 1.4076 0.6249
vt 1.4076 -0.3751
vt 2.4076 -0.3751
vt 2.4076 0.6249
vt 1.4076 0.6249
vt 1.4076 -0.3751
vt 2.4076 0.6249
vt 1.4076 -0.3751
vt 2.4076 -0.3751
vt 2.4076 0.6249
vt 2.4076 -0.3751
vt 2.4076 0.6249
vt 2.4076 -0.3751
vt 2.4076 0.6249
vt 1.4076 -0.3751
vt 2.4076 -0.3751
vt 2.4076 0.6249
vt 2.4076 0.6249
vt 1.4076 0.6249
vt 2.4076 0.6249
vt 1.4076 0.6249
vt 2.4076 0.6249
vt 1.4076 -0.3751
vt 2.4076 -0.3751
vt 2.4076 0.6249
vt 1.4076 0.6249
vt 1.4076 -0.3751
vt 2.4076 -0.3751
vt 2.4076 0.6249
vt 1.4076 0.6249
vt 1.4076 -0.3751
vn 0.0000 0.4220 0.9066
vn 0.5136 0.4018 0.7582
vn 0.2913 -0.5548 -0.7793
vn 0.0000 -0.9066 0.4220
vn -0.5136 -0.3215 -0.7956
vn -0.8583 -0.4652 0.2165
vn -0.9962 0.0786 -0.0366
vn 0.0000 -0.6506 -0.7595
vn 0.0000 -0.1195 -0.9928
vn 0.8583 -0.4652 0.2165
vn 0.9962 0.0786 -0.0366
vn 0.0000 0.9066 -0.4220
vn 0.0000 -0.4220 -0.9066
vn 0.0000 0.1393 0.9903
vn 0.5136 -0.3215 -0.7956
vn 0.0000 0.6828 0.7306
vn -0.3069 0.2277 0.9241
vn 0.0000 -0.6302 -0.7764
vn -0.2913 -0.5548 -0.7793
vn 0.3069 0.2277 0.9241
vn 0.0000 0.1674 0.9859
vn -0.2680 0.3026 0.9147
vn -0.2450 -0.5131 -0.8226
vn 0.2451 -0.5129 -0.8227
vn 0.2680 0.3026 0.9147
vn -0.0000 -0.4551 -0.8904
vn 0.0000 -0.4553 -0.8903
vn -0.0450 -0.4458 -0.8940
vn 0.0450 -0.4458 -0.8940
vn 0.0000 -0.4522 -0.8919
vn -0.9170 -0.3616 0.1683
vn 0.9170 -0.3616 0.1683
vn -0.3060 0.5632 0.7676
vn -0.3060 -0.2248 -0.9251
vn 0.3060 -0.2248 -0.9251
vn 0.3060 0.5632 0.7676
vn -0.8533 0.4727 -0.2201
vn 0.8533 0.4727 -0.2201
vn -0.5136 0.4018 0.7582
usemtl Material.001_noun_48738_cc.png
s off
f 125/163/52 127/164/52 86/165/52 80/166/52 97/167/52 98/168/52
f 89/169/52 90/170/52 77/171/52 84/172/52 115/173/52 114/174/52
f 127/164/52 126/175/52 113/176/52 115/173/52 84/172/52 86/165/52
usemtl Material.001
f 125/177/53 98/178/53 100/179/53 123/180/53
f 106/181/54 110/182/54 85/183/54 79/184/54
f 85/185/55 88/186/55 87/187/55 83/188/55
f 120/189/56 94/190/56 96/191/56 118/192/56
f 82/193/57 81/194/57 87/187/57 88/195/57
f 117/196/58 118/197/58 96/191/58 91/198/58
f 108/199/59 101/200/59 104/201/59 82/202/59
f 119/203/60 128/204/60 130/205/60 121/206/60
f 78/207/61 79/208/61 85/183/61 83/188/61
f 129/209/62 123/210/62 100/179/62 103/211/62
f 124/212/63 128/204/63 119/213/63 116/214/63
f 93/215/59 106/216/59 79/217/59 95/218/59
f 130/219/64 132/220/64 112/221/64 109/222/64 122/223/64 121/224/64
f 97/225/65 80/226/65 81/227/65 99/228/65
f 104/229/55 99/230/55 81/227/55 82/202/55
f 102/231/64 107/232/64 112/233/64 132/234/64 131/235/64
f 129/209/66 103/236/66 102/237/66 131/238/66
f 124/212/67 116/239/67 113/240/67 126/241/67
f 80/242/68 86/243/68 87/187/68 81/244/68
f 110/245/69 111/246/69 88/247/69 85/248/69
f 111/249/70 108/250/70 82/251/70 88/195/70
f 84/252/71 77/253/71 78/254/71 83/188/71
f 120/255/64 122/256/64 109/257/64 105/258/64 94/259/64
f 83/260/72 87/261/72 86/262/72 84/263/72
f 92/264/55 95/265/55 79/217/55 78/266/55
f 92/264/73 90/267/73 89/268/73 91/198/73
f 93/215/74 95/265/74 96/191/74 94/269/74
f 104/229/75 101/200/75 102/237/75 103/211/75
f 97/225/76 99/230/76 100/179/76 98/270/76
f 107/271/77 102/272/77 101/273/77 108/274/77
f 94/275/78 105/276/78 106/277/78 93/278/78
f 112/279/79 107/280/79 108/281/79 111/282/79
f 105/283/80 109/284/80 110/285/80 106/286/80
f 109/287/81 112/288/81 111/289/81 110/290/81
f 95/291/82 92/292/82 91/293/82 96/294/82
f 99/295/83 104/296/83 103/297/83 100/298/83
f 77/299/65 90/267/65 92/300/65 78/266/65
f 113/301/52 114/302/52 115/303/52
f 120/189/64 121/304/64 122/305/64
f 125/177/52 126/306/52 127/307/52
f 130/308/64 131/309/64 132/310/64
f 113/301/84 116/239/84 117/311/84 114/312/84
f 119/203/85 121/304/85 120/313/85 118/192/85
f 129/209/86 131/309/86 130/205/86 128/314/86
f 124/212/87 126/306/87 125/315/87 123/180/87
f 116/316/88 119/317/88 118/318/88 117/319/88
f 123/320/89 129/321/89 128/322/89 124/323/89
f 89/324/90 114/302/90 117/311/90 91/198/90
